<?xml version="1.0" encoding="utf-8"?>
<!-- Generator: Adobe Illustrator 23.1.0, SVG Export Plug-In . SVG Version: 6.00 Build 0)  -->
<svg version="1.1" id="_x31_" xmlns="http://www.w3.org/2000/svg" xmlns:xlink="http://www.w3.org/1999/xlink" x="0px" y="0px"
	 viewBox="0 0 521 350.43" style="enable-background:new 0 0 521 350.43;" xml:space="preserve">
<style type="text/css">
	.st0{opacity:0.6;fill:#B5856D;}
	.st1{fill:#4F92AA;}
	.st2{fill:#8AB9CE;}
	.st3{fill:#F9E7C0;}
	.st4{fill:#D8B991;}
	.st5{fill:#BA8A67;}
	.st6{fill:#457E9B;}
	.st7{fill:#5391AA;}
	.st8{fill:#FFA745;}
	.st9{fill:#FFD25C;}
	.st10{fill:#FC993D;}
	.st11{fill:#FFA457;}
	.st12{fill:#FFDF80;}
	.st13{fill:#FFF9DC;}
	.st14{fill:#FFCC61;}
	.st15{fill:#604344;}
	.st16{fill:#F47E34;}
	.st17{fill:#403C4C;}
	.st18{fill:#3A6893;}
	.st19{fill:#C7DDDD;}
	.st20{fill:#809B99;}
	.st21{fill:#9AA8B7;}
	.st22{fill:#48596D;}
	.st23{fill:#2E4051;}
	.st24{fill:#935238;}
	.st25{fill:#874832;}
	.st26{fill:#B2D3D0;}
	.st27{fill:#CFE5E4;}
	.st28{fill:#F4BA7D;}
	.st29{fill:#B5694E;}
	.st30{fill:#683531;}
	.st31{fill:#FFCE92;}
	.st32{fill:#AA8F83;}
	.st33{fill:#CCB9B0;}
	.st34{fill:#DBC7BF;}
	.st35{fill:#603426;}
	.st36{fill:#578C9B;}
	.st37{fill:#71A3B5;}
	.st38{fill:#EFD29C;}
	.st39{fill:#836DA3;}
	.st40{fill:#765A8E;}
	.st41{fill:#6B578C;}
	.st42{opacity:0.6;}
	.st43{fill:#B5A7D3;}
	.st44{fill:#D6C34C;}
	.st45{fill:#BAA435;}
	.st46{fill:#A08A28;}
	.st47{opacity:0.4;}
	.st48{fill:#F7E78D;}
	.st49{fill:#66444F;}
	.st50{fill:#7F5965;}
	.st51{fill:#966C79;}
	.st52{fill:#72515D;}
	.st53{fill:#AA556B;}
	.st54{fill:#BC6276;}
	.st55{fill:#CC7282;}
	.st56{fill:#D88497;}
	.st57{fill:#F2BBC6;}
	.st58{fill:#DDB878;}
	.st59{opacity:0.5;fill:#8AB9CE;}
	.st60{fill:#D67F98;}
	.st61{fill:#FFE6EC;}
	.st62{fill:#FC565D;}
	.st63{fill:#B23958;}
	.st64{fill:#D65476;}
	.st65{fill:#ED7298;}
	.st66{fill:#C6466D;}
	.st67{fill:#FFF6D2;}
	.st68{opacity:0.5;fill:#EFCFA3;}
	.st69{fill:#E2BC8D;}
	.st70{fill:#9B2F50;}
	.st71{fill:#C99B67;}
	.st72{fill:#513F42;}
	.st73{fill:#423336;}
	.st74{fill:#4F3E41;}
	.st75{fill:#725F62;}
	.st76{fill:#826F73;}
	.st77{fill:#937F84;}
	.st78{fill:#3F3739;}
	.st79{fill:#EFE7D3;}
	.st80{fill:#917E83;}
	.st81{fill:#332629;}
	.st82{fill:#FFFBF3;}
	.st83{opacity:0.8;}
	.st84{fill:#F4EDDF;}
	.st85{fill:#C1A280;}
	.st86{opacity:0.5;fill:#FFC15A;}
	.st87{fill:#FFE6C0;}
	.st88{fill:#E5BF9C;}
	.st89{fill:#EAC3A0;}
	.st90{fill:#FFEDCC;}
	.st91{opacity:0.6;fill:#EAC3A0;}
	.st92{fill:#FCD1AE;}
	.st93{opacity:0.4;fill:#B5856D;}
	.st94{fill:#6D3B23;}
	.st95{fill:#C9AFA6;}
	.st96{fill:#9BC4C0;}
	.st97{fill:#73A09B;}
	.st98{fill:#FFB694;}
	.st99{fill:#D8CEA9;}
	.st100{fill:#49463A;}
	.st101{fill:#3A372C;}
	.st102{fill:#F9A380;}
	.st103{fill:#FFB97D;}
	.st104{fill:#E0D5A9;}
	.st105{fill:#B7AC84;}
	.st106{fill:#B24B40;}
	.st107{fill:#992C25;}
	.st108{fill:#5E3220;}
	.st109{fill:#726E5D;}
	.st110{fill:#6B6755;}
	.st111{fill:#F2E7BB;}
	.st112{fill:#DDD2A8;}
	.st113{fill:#445768;}
	.st114{fill:#30414F;}
	.st115{fill:#CEC39D;}
	.st116{fill:#BAAD7B;}
	.st117{fill:#E5D7A3;}
	.st118{fill:#5B433B;}
	.st119{opacity:0.3;fill:#6B3420;}
	.st120{fill:#CEC293;}
	.st121{fill:#5B2D1A;}
	.st122{fill:#A09A8A;}
	.st123{fill:#FFF5D2;}
	.st124{fill:#ED80C6;}
</style>
<path class="st0" d="M193.9,122.74V76.88h-53.43L62.9,103.74l28.61,19H68.09l-15.64,10.95L0,185.44l60.96,41.92l55.23,38.64H226.4
	v-45.75h57.73c0.13,0.39,0.29,0.72,0.43,0.98c0.07,0.13,0.14,0.25,0.21,0.37c0.51,1.66,3.13,2.25,4.9,1.96
	c1.79-0.29,2.95-1.15,3.87-2.32c0.21-0.2,0.46-0.47,0.69-0.82c0.16,0,0.33,0,0.5,0l-0.04,0.16l0.73,0.43
	c-0.07,2.3,0.41,4.57,1.8,5.8c2.05,1.82,5,1.88,10.26,3.66c3.75,1.26,9.66,3.79,11.78,3.65c5.09-0.34,19.32-2.47,21.76-2.79
	c0.65-0.09,1.03-0.69,1.32-1.58c0.77-0.09,1.5-0.17,2.16-0.25c0,0,0.01-0.01,0.01-0.01c2.72-0.32,4.57-0.54,4.69-0.59
	c0.82-0.31,1.84-1.96,0.33-2.91c-0.86-1.37-2.01-3.01-2.77-2.73c-0.42,0.16-0.16,1.16,0.25,2.18c-0.53-0.01-1.17,0.01-1.88,0.03
	c0-0.02,0-0.04,0-0.06c-0.5,0.01-1.05,0.04-1.64,0.07c0.08-0.23,0.16-0.45,0.24-0.68c0,0,0,0,0,0c0.08-0.21,0.17-0.42,0.27-0.63
	c0.03-0.07,0.05-0.13,0.08-0.2c0,0,0,0,0,0c0.32-0.74,0.52-1.51,0.62-2.28c4.07-0.74,7.14-1.32,7.29-1.41
	c0.01-0.01,0.03-0.02,0.04-0.02h19.87v-97.5H193.9z"/>
<rect x="210.44" y="247.24" transform="matrix(0.8356 -0.5494 0.5494 0.8356 -100.4289 169.9483)" class="st0" width="46.5" height="11"/>
<path class="st0" d="M444.95,157.11c-0.51-0.43-2.49,0.25-3.78,0.76c0,0,0,0,0,0c-0.04,0.02-0.07,0.03-0.11,0.04
	c-0.03,0.01-0.06,0.02-0.09,0.03c-0.07,0.03-0.14,0.06-0.2,0.08c-0.08,0.03-0.15,0.06-0.22,0.09c-0.02,0.01-0.04,0.02-0.06,0.02
	c-0.02,0.01-0.05,0.02-0.07,0.03c-0.09-0.15-0.22-0.31-0.4-0.45c-2.16,0.39-13.8,1.47-21.93,1.65l-2.06-2.09
	c7.56-1.61,19.42-3.88,19.42-3.88c0.01-0.08,0.02-0.15,0.02-0.22c0-0.05-0.01-0.09-0.01-0.14c0-0.02,0-0.04,0-0.06
	c-0.01-0.06-0.02-0.12-0.04-0.17c0,0,0-0.01,0-0.01c0-0.01,0-0.01,0-0.02c0.03-0.04,0.06-0.09,0.09-0.13
	c0.01-0.01,0.02-0.02,0.02-0.04c0.02-0.03,0.04-0.06,0.06-0.09c0,0,0,0,0,0c0.68-1.03,1.88-2.98,1.64-3.63
	c-0.33-0.9-1.52,0.55-1.79,1.11c-0.14,0.3-0.38,0.98-0.57,1.55l0,0c-0.06,0.16-0.11,0.32-0.15,0.45c-0.32-0.19-0.63-0.25-0.63-0.25
	c-1.01,0.2-7.36,0.92-14.61,1.92c-0.36-0.38-1.17-1-2.55-0.93c-5.54,0.94-10.18,1.77-14.08,2.54c0.05-0.51-0.55-0.35-1.09-0.1
	c0,0,0-0.01-0.01-0.01c-0.01-0.03-0.03-0.06-0.06-0.09c-0.01-0.01-0.01-0.02-0.02-0.03c-0.03-0.03-0.07-0.07-0.11-0.11
	c-0.01-0.01-0.02-0.02-0.03-0.03c-0.04-0.03-0.08-0.06-0.13-0.09c-0.01-0.01-0.03-0.02-0.04-0.03c-0.06-0.04-0.12-0.08-0.19-0.11
	c-0.02-0.01-0.04-0.02-0.05-0.03c-0.06-0.03-0.13-0.07-0.2-0.1c-0.01-0.01-0.03-0.01-0.04-0.02c-0.08-0.04-0.16-0.07-0.25-0.11
	c0.49-0.47,0.49-0.94,0.44-1.25c-0.06-0.36,1.12-0.75,1.15-0.9c0.04-0.28-0.68,0.05-2,0.42c-0.63,0.18-1.1,0.66-1.41,1.12
	c-0.87-0.22-1.66-0.29-1.9-0.08c-0.03,0.03-0.05,0.06-0.06,0.1c0,0-0.01-0.01-0.01-0.01s-4.23,2.91-5.71,4.1
	c-5.77,1.59-7.74,2.86-8.64,4.2c-0.6-0.13-1.73-0.26-2.17-0.23c-0.03,0-0.05-0.01-0.08-0.01c-0.15-0.01-0.66,0.31-0.91,0.26
	c-0.21-0.04-0.66-0.32-0.84-0.31c-0.6,0.03-1.01,0.12-1.55,0.26c0,0,0,0-0.01,0c-0.03-0.02-0.07-0.05-0.15-0.08
	c-0.27-0.1-0.87,0.09-1.3,0.25c-0.82-1.37-1.51-2.21-1.77-2.06c-0.01,0.01-0.02,0.02-0.03,0.04c-0.01,0-0.02,0-0.02,0
	c-0.03,0.03-0.05,0.1-0.04,0.21c-0.03,0.4,0.18,1.25,0.58,2.34l-0.03,0.02l-0.18,0.11l0,0.02l-2.36,1.81
	c0.04,1.24,0.24,2.13,0.84,3.01c-0.01-0.01-0.02-0.02-0.02-0.02c0.05,0.08,0.11,0.16,0.17,0.24c0.03,0.03,0.05,0.07,0.08,0.1
	c0.1,0.13,0.22,0.26,0.34,0.4c0.04,0.04,0.08,0.08,0.11,0.12c0.14,0.15,0.29,0.29,0.46,0.44l1.86-0.24l0,0l1.08-0.14v0l0.42-0.05
	c0.67,1.06,1.22,1.72,1.41,1.72c0.08,0.05,0.16,0.06,0.21,0.03c0.23-0.13,0.08-0.99-0.35-2.24c0.85-0.31,1.83-0.78,2.96-1.48
	c0.1-0.01,0.2-0.02,0.29-0.03c0.01,0.01,0.02,0.01,0.02,0.02c0.05,0.04,0.1,0.08,0.16,0.12c0.03,0.02,0.07,0.04,0.11,0.06
	c0,0,0,0,0,0c0.22,0.15,0.47,0.22,0.74,0.18l0,0c0.04,0.05,0.09,0.11,0.15,0.17c0.01,0.01,0.03,0.03,0.04,0.04
	c0.06,0.06,0.12,0.11,0.19,0.18c0.01,0.01,0.01,0.01,0.02,0.02c0.08,0.07,0.16,0.14,0.26,0.21c0.02,0.02,0.04,0.03,0.07,0.05
	c0.2,0.15,0.45,0.3,0.74,0.45c0.02,0.01,0.05,0.03,0.07,0.04c0.3,0.15,0.66,0.3,1.06,0.44c0.03,0.01,0.06,0.02,0.09,0.03
	c0.21,0.07,0.43,0.13,0.66,0.19c0.01,0,0.01,0,0.02,0c0,0,0,0,0.01,0c0.24,0.15,0.49,0.3,0.74,0.44c0,0,0,0.01-0.01,0.01l0.14,0.06
	l0.69,0.38c0.01-0.01,0.01-0.01,0.02-0.02c0.07,0.04,0.15,0.07,0.22,0.11c0,0-0.01,0-0.01,0c0.02,0.01,0.04,0.02,0.06,0.03
	c0.08,0.04,0.16,0.07,0.24,0.11c0.1,0.04,0.19,0.09,0.29,0.13c0.08,0.04,0.17,0.07,0.26,0.11c0.1,0.04,0.19,0.08,0.29,0.12
	c0.09,0.03,0.17,0.07,0.26,0.1c0.1,0.04,0.2,0.07,0.29,0.11c0.09,0.03,0.18,0.06,0.27,0.1c0.1,0.04,0.2,0.07,0.3,0.1
	c0.09,0.03,0.18,0.06,0.27,0.09c0.11,0.03,0.21,0.07,0.32,0.1c0.08,0.03,0.17,0.05,0.25,0.08c0.18,0.06,0.37,0.11,0.55,0.16
	c0.09,0.03,0.17,0.05,0.26,0.07c0.1,0.03,0.21,0.06,0.31,0.09c0.1,0.03,0.19,0.05,0.29,0.08c0.1,0.02,0.19,0.05,0.29,0.07
	c0.1,0.02,0.19,0.05,0.29,0.07c0.09,0.02,0.19,0.05,0.28,0.07c0.1,0.02,0.19,0.04,0.29,0.07c0.09,0.02,0.18,0.04,0.27,0.06
	c0.1,0.02,0.19,0.04,0.29,0.06c0.09,0.02,0.18,0.04,0.27,0.06c0.09,0.02,0.19,0.04,0.28,0.06c0.09,0.02,0.18,0.04,0.27,0.05
	c0.09,0.02,0.18,0.04,0.27,0.05c0.09,0.02,0.18,0.03,0.28,0.05c0.16,0.03,0.31,0.06,0.46,0.08c0.09,0.02,0.18,0.03,0.27,0.05
	c0.09,0.01,0.17,0.03,0.25,0.04c0.08,0.01,0.16,0.03,0.24,0.04c0.08,0.01,0.16,0.03,0.24,0.04c0.08,0.01,0.16,0.02,0.23,0.04
	c0.08,0.01,0.16,0.02,0.23,0.03c0.07,0.01,0.15,0.02,0.22,0.03c0.08,0.01,0.15,0.02,0.22,0.03c0.07,0.01,0.14,0.02,0.2,0.03
	c0.07,0.01,0.14,0.02,0.21,0.03c0.07,0.01,0.13,0.02,0.19,0.02c0.06,0.01,0.13,0.02,0.19,0.02c0.07,0.01,0.13,0.02,0.2,0.02
	c0.05,0.01,0.11,0.01,0.16,0.02c0.11,0.01,0.21,0.02,0.31,0.03c0.03,0,0.05,0.01,0.08,0.01c0.3,0.06,0.6,0.09,0.85,0.08
	c0.01,0,0.02,0,0.04,0c0.02,0,0.04,0,0.05,0c0.03,0,0.06,0,0.09,0.01c0.01,0,0.02,0,0.03,0c0.02,0,0.04,0,0.05,0
	c0.01,0,0.02,0,0.02,0c0.01,0,0.02,0,0.02,0l-0.01-0.05c0.14-0.02,0.26-0.06,0.34-0.12c0.28-0.18,1.51-1.12,2.86-2.14l3,0.11
	l-0.01-0.02c0,0,0,0,0.01,0c0.19,0,0.42,0,0.67-0.01c0.03,0,0.06,0,0.1,0c0,0,0,0,0,0c1.39-0.04,3.4-0.19,4.84-0.45
	c0.06-0.01,0.13-0.02,0.19-0.03c0.02,0,0.03-0.01,0.04-0.01c0.61-0.12,1.1-0.26,1.35-0.43c0.07-0.04,0.12-0.09,0.15-0.13
	c0.04-0.05,0.09-0.13,0.15-0.21c0.02-0.03,0.04-0.06,0.06-0.09c0.04-0.06,0.08-0.12,0.13-0.19c0.03-0.04,0.05-0.08,0.08-0.13
	c0.05-0.07,0.1-0.15,0.15-0.23c0.03-0.05,0.06-0.1,0.09-0.15c0.05-0.09,0.11-0.18,0.17-0.27c0.03-0.05,0.06-0.1,0.1-0.16
	c0.07-0.11,0.14-0.23,0.21-0.36c0.02-0.04,0.04-0.07,0.07-0.11c0.1-0.16,0.19-0.33,0.29-0.5c0.02-0.04,0.04-0.07,0.06-0.11
	c0.08-0.14,0.16-0.27,0.23-0.41c0.03-0.06,0.07-0.12,0.1-0.18c0.07-0.12,0.13-0.23,0.19-0.35c0.04-0.07,0.07-0.13,0.11-0.2
	c0.06-0.11,0.12-0.22,0.17-0.33c0.01-0.03,0.03-0.06,0.05-0.09c3.77-0.13,6.23-0.06,7.03-0.66c0.13-0.09,0.24-0.2,0.35-0.31
	c0.03-0.03,0.06-0.07,0.09-0.1c0.08-0.08,0.15-0.17,0.22-0.26c0.03-0.04,0.05-0.07,0.08-0.11c0.17-0.25,0.31-0.52,0.42-0.8
	c0.02-0.04,0.03-0.08,0.04-0.12c0.04-0.11,0.07-0.22,0.11-0.32c0.01-0.04,0.02-0.08,0.03-0.12c0.01-0.04,0.02-0.08,0.03-0.13
	c7.27-1.32,14.29-2.65,15.93-3.02c0-0.07,0.01-0.15,0.01-0.24c0-0.06,0-0.12,0.01-0.18c0.2-0.01,0.44-0.02,0.72-0.04v0
	c0.73-0.06,1.71-0.18,2.67-0.42C444.41,158.45,445.28,157.39,444.95,157.11z M407.04,167.07c-0.05-0.06-0.12-0.12-0.19-0.18
	c0.18,0.03,0.3,0.05,0.34,0.06C407.12,166.98,407.07,167.03,407.04,167.07z M407.32,166.54
	C407.32,166.54,407.32,166.54,407.32,166.54l0.02-0.12c0.02,0,0.05,0.01,0.07,0.01C407.37,166.47,407.34,166.51,407.32,166.54z
	 M398.93,168.53c-0.52-0.12-1.02-0.23-1.52-0.33c0.11-0.03,0.22-0.05,0.33-0.08c0.06-0.01,0.12-0.03,0.18-0.04
	c0.43-0.1,0.88-0.21,1.34-0.34c0.16-0.04,0.32-0.08,0.48-0.12C399.47,167.92,399.2,168.23,398.93,168.53z M407.24,167.42
	c0-0.06-0.02-0.12-0.07-0.2c0.06,0.01,0.14,0,0.22-0.01l-0.09,0.22C407.28,167.43,407.27,167.43,407.24,167.42
	C407.24,167.42,407.24,167.42,407.24,167.42z M407.86,166.1c-0.04-0.01-0.07-0.02-0.11-0.03c0.01,0,0.03,0,0.04-0.01
	c0.03,0,0.06-0.01,0.09-0.01L407.86,166.1z M407.23,167.58l-1,2.36l-2.07-0.01C405.48,168.92,406.78,167.93,407.23,167.58z"/>
<path class="st0" d="M391.4,222.78c-20.5,3.96-48,14.96-55.95,33.95c-31.87,0.03-51.71,17.37-80.55,42.01l86,51.5l22-0.5
	l46.6-128.83L391.4,222.78z"/>
<g>
	<polygon class="st1" points="247.47,116.39 247.47,115.05 184.65,80.12 129.93,111.92 192.74,148.18 	"/>
	<polygon class="st2" points="247.47,115.05 184.65,78.78 129.93,110.58 192.74,146.84 	"/>
	<polygon class="st1" points="245.82,115.26 183,79 128.28,110.79 191.09,147.06 	"/>
	<polygon class="st3" points="244.58,115.4 245.6,109.19 188.37,85.48 134.37,113.68 193.64,144.33 	"/>
	<polygon class="st4" points="194.75,138.84 245.05,112.55 245.6,109.19 188.37,85.48 134.37,113.68 193.64,144.33 	"/>
	<polygon class="st5" points="200.5,109.33 228.95,102.29 188.37,85.48 134.37,113.68 193.64,144.33 193.66,144.23 	"/>
	<polygon class="st6" points="129.92,95.14 192.62,131.61 192.62,148.17 129.92,111.7 	"/>
	<g>
		<polygon class="st7" points="147.45,105.34 129.92,95.14 129.92,111.7 151.02,123.97 		"/>
		<polygon class="st7" points="178.43,123.35 182,141.99 192.62,148.17 192.62,131.61 		"/>
	</g>
	<polygon class="st1" points="247.47,108.78 184.65,72.51 129.97,95.16 192.33,131.9 	"/>
	<polygon class="st8" points="247.47,107.63 247.47,106.77 184.65,71.36 130.92,92.7 192.74,130.09 	"/>
	<polygon class="st9" points="247.47,106.77 184.65,70.5 129.93,92.96 192.74,129.23 	"/>
	<polygon class="st8" points="245.68,106.48 182.86,70.21 131.16,92.36 192.04,128.45 	"/>
	<polygon class="st3" points="244.51,106.1 245.47,100.52 186.9,72.84 136.72,92.67 194.32,125.93 	"/>
	<polygon class="st4" points="195.2,121.27 244.95,103.55 245.47,100.52 186.9,72.84 136.72,92.67 194.32,125.93 	"/>
	<polygon class="st5" points="199.8,95.71 228.21,92.36 186.9,72.84 136.72,92.67 194.32,125.93 194.34,125.84 	"/>
	<polygon class="st8" points="130.59,76.76 193.29,113.23 193.29,127.66 130.59,93.32 	"/>
	<polygon class="st8" points="247.47,100.98 184.65,64.71 129.93,78.41 192.74,114.68 	"/>
	<polygon class="st10" points="129.92,77.05 192.62,113.52 192.62,130.08 129.92,93.61 	"/>
	<g>
		<polygon class="st11" points="142.84,84.56 129.92,77.05 129.92,93.61 147.64,103.92 		"/>
		<polygon class="st11" points="173.38,102.33 178.18,121.68 192.62,130.08 192.62,113.52 		"/>
	</g>
	<polygon class="st9" points="247.47,100.02 184.65,63.75 129.92,77.05 192.74,113.72 	"/>
	<g>
		<polygon class="st12" points="200.6,72.96 209.62,109.5 247.47,100.02 		"/>
		<polygon class="st12" points="160.16,69.7 129.92,77.05 167.38,98.91 		"/>
	</g>
	<polygon class="st13" points="193.96,73.6 183.33,67.85 141.74,77.89 152.37,83.64 	"/>
	<path class="st14" d="M189.77,120.81c0-2.26-1.59-5.01-3.56-6.15c-1.97-1.14-3.56-0.23-3.57,2.03c0,2.26,1.6,5.01,3.57,6.15
		C188.17,123.98,189.77,123.07,189.77,120.81z"/>
	<path class="st2" d="M188.62,138.61c0-2.26-1.6-5.01-3.57-6.15c-1.97-1.14-3.56-0.23-3.56,2.03c0,2.26,1.6,5.01,3.56,6.15
		C187.02,141.78,188.62,140.87,188.62,138.61z"/>
	<path class="st15" d="M189.25,120.69c0-1.8-1.28-4-2.85-4.91c-1.57-0.91-2.84-0.18-2.84,1.62c0,1.8,1.28,4,2.85,4.91
		C187.97,123.22,189.25,122.49,189.25,120.69z"/>
	<polygon class="st16" points="129.92,77.05 191.76,114.47 192.62,130.08 192.62,113.52 	"/>
	<polygon class="st13" points="195.19,77.71 192.46,76.23 158.73,85.02 161.46,86.5 	"/>
	<path class="st17" d="M187.94,138.21c0-1.83-1.29-4.05-2.88-4.97c-1.59-0.92-2.88-0.18-2.88,1.64c0,1.82,1.29,4.05,2.88,4.97
		C186.64,140.77,187.94,140.04,187.94,138.21z"/>
	<polygon class="st18" points="129.92,95.14 191.69,132.33 192.62,148.17 192.62,131.61 	"/>
	<polygon class="st3" points="200.23,118.04 218.75,112.01 230.89,107.92 217.46,111.72 	"/>
	<polygon class="st3" points="210.97,129.07 228.4,120.38 239.8,114.54 227.08,120.28 	"/>
	<polygon class="st4" points="219.62,113.34 234.08,108.46 243.55,105.14 233.07,108.24 	"/>
	<polygon class="st4" points="196.84,138.97 210.61,132.38 219.62,127.96 209.58,132.29 	"/>
</g>
<g>
	<path class="st19" d="M281.28,85.45c0.5,1-1.54,2.97-2.65,2.1c-1.61-1.26-6.33-8.11-5.86-9.47c0.47-1.36,1.12-1.84,2.21-1.41
		C277.99,77.87,280.2,83.3,281.28,85.45z"/>
	<path class="st20" d="M273.17,114.22l-7.56,4.83l3.82-16.06c0,0,2.49-0.08,2.57,0.16C272.08,103.38,273.17,114.22,273.17,114.22z"
		/>
	<path class="st21" d="M278.55,131.91c0.54-0.46-1.37-1.75-3.24-2.36c-2.01-0.66-2.14-0.2-2.14-0.2l-0.39,0.83
		C272.78,130.18,277.05,133.19,278.55,131.91z"/>
	<path class="st21" d="M267.47,139.2c-1.02,0.39-2.19-0.65-2.19-2.08c0-1.42,0.33-2.46,0.33-2.46l1.37,0.16
		C266.98,134.83,268.62,138.77,267.47,139.2z"/>
	<path class="st22" d="M275.82,129c0,0.03-2.03,3.35-3.74,1.01c-0.07-0.1-0.23-23.54-1.33-30.95l5.74-3.74
		C278.22,105.69,275.59,113.49,275.82,129z"/>
	<path class="st23" d="M271.64,98.49c1.1,8.31,1.27,31.52,1.34,31.61c0.26,0.34,0.53,0.57,0.8,0.7c-0.54,0.13-1.14-0.03-1.7-0.79
		c-0.07-0.1-0.23-23.54-1.33-30.95L271.64,98.49z"/>
	<path class="st23" d="M276.01,120.11c-0.69,0.43-1.49,0.49-2.35-0.02c-0.08-0.05-0.15-12.82-0.64-22.49l3.48-2.27
		C277.88,103.64,276.5,109.8,276.01,120.11z"/>
	<path class="st22" d="M268.18,134.54c-2.07,2.22-3.88,0.52-3.87-0.34c0.1-16.34-0.88-34.63-0.42-35.65l8.4-0.66
		c0,0,2.35,8.11-0.84,9.6C268.61,108.82,268.6,132.98,268.18,134.54z"/>
	<path class="st23" d="M263.9,98.55l2.28-0.18c-0.21,5.31,0.1,21.93-0.35,37.02c0,0.07,0.01,0.15,0.03,0.23
		c-0.92-0.13-1.54-0.92-1.54-1.41C264.42,117.86,263.43,99.57,263.9,98.55z"/>
	<polygon class="st23" points="267.28,101.6 274.46,99.93 274.03,102.71 267.22,105.07 	"/>
	<path class="st24" d="M275.36,77.43c4.55,6.2,0.18,11.39,1.56,20.21c-0.26,2.85-7.34,4.93-10.03,4.7
		c-2.64-0.23-2.47-1.32-2.94-2.19c0.8-6.7-0.36-9.69-0.6-10.91c-0.85-4.26-0.73-5.72,0.48-7.82
		C265.08,78.43,270.95,73.53,275.36,77.43z"/>
	<path class="st25" d="M272.87,76.12c0.85,0.2,1.69,0.61,2.48,1.31c4.55,6.2,0.18,11.39,1.56,20.21c-0.13,1.43-1.97,2.66-4.11,3.51
		C275.33,99.68,274.61,83.85,272.87,76.12z"/>
	<path class="st19" d="M279.88,83.38c0.57-0.95,2.4-0.88,3.09,0.52c0.92,1.88-0.74,3.95-1.23,4.45c-0.81,0.82-2.38,0.47-3.13-0.59
		C278.16,87.12,279.15,84.61,279.88,83.38z"/>
	<path class="st26" d="M281.81,87.15c0.31,0,0.61-0.05,0.89-0.13c-0.34,0.63-0.75,1.12-0.96,1.33c-0.81,0.82-2.38,0.47-3.13-0.59
		c-0.24-0.35-0.06-1.24,0.27-2.19C279.57,86.53,280.62,87.15,281.81,87.15z"/>
	<polygon class="st19" points="273.99,101.21 273.91,101.91 272.43,102.65 272.39,101.83 	"/>
	<path class="st27" d="M266.86,125.21c0,0-5.48,0.87-5.54-1.95c-0.31-15.75,2.3-21.44,1.95-29.7c-0.23-5.46-3.27-14.19,5.61-18.09
		c0,0,2.06-0.22-1.21,1.72c-1.05,0.62,1.95,7.58,1.91,14.27C269.48,108.23,266.86,125.21,266.86,125.21z"/>
	<path class="st26" d="M263.27,93.56c-0.11-2.63,1.25-11.93,2.34-12.2c0.9-0.22,1.57,8.15,1.61,10.03
		c0.22,9.09-4.15,15.73-4.1,33.06c0,0.26,0.04,0.5,0.12,0.71c-1.03-0.25-1.89-0.78-1.92-1.89
		C261.01,107.51,263.63,101.82,263.27,93.56z"/>
	<path class="st27" d="M278.87,113.36c0.03,0.47,0.16,4.6-3.59,5.92c0,0,0.31-24.79,0.16-29.23c-0.16-4.44,0.47-12.08-5.07-14.19
		c0,0,3.43-1.17,6.08,2.11c2.65,3.27,1.95,16.68,1.95,19.72C278.4,100.73,278.47,107.75,278.87,113.36z"/>
	<path class="st24" d="M270.68,75.66c0,0-1.26-0.19-2.44,0.49l-0.17,0.99L270.68,75.66z"/>
	<path class="st28" d="M267.85,71.89c1.13,2.72,0.45,5.03,0.51,5.41c0.21,1.19,2.75,3.62,4.17,1.36c0.67-1.06-0.86-4.83-0.86-4.83
		S267.21,70.34,267.85,71.89z"/>
	<path class="st29" d="M271.77,78.9l-1.09,1.69c-1.8-1.16-3.03-2.19-3.14-3.46l0.7-0.99C268.66,77.18,269.5,78.44,271.77,78.9z"/>
	<path class="st29" d="M271.8,78.9l1.17,0.68c0.31-1.02,0.09-1.83-0.36-2.73l-0.73-0.28C272.24,77.12,272.18,78,271.8,78.9z"/>
	<polygon class="st30" points="271.79,78.8 272.61,79.4 272.63,80.3 271.93,80.59 271.25,79.68 	"/>
	<path class="st30" d="M272.63,80.3c0.99,4.73,1.35,12.89,1.25,16.16l-0.62,1.87l-1.04-1.82c0.05-5.61,0.21-10.81-0.29-15.93
		L272.63,80.3z"/>
	<path class="st27" d="M263.33,80.72c-0.82,1.21-0.9,6.6-0.94,8.31c-0.04,1.63-0.68,4.02,0.55,4.76c1.28,0.76,2.02,0.21,2.47-0.61
		c0.47-0.86,1.14-8.4,1-9.65C265.97,79.67,264.57,79.32,263.33,80.72z"/>
	<g>
		<path class="st31" d="M281.74,85.01c-0.09-0.8,0.77-1.09,0.67-1.42c0,0-0.08-0.04-0.19-0.07c0.17-0.1,0.82-0.37,0.82-0.37
			c0.1,0.32,0,0.93-0.16,1.8C282.75,85.49,282.25,85.37,281.74,85.01z"/>
		<path class="st31" d="M273.46,88.64c-0.18,0.08,0.14-1.43,0.87-2.06c0.48-0.42,0.97-0.67,1.05-0.4c0.09,0.35-0.29,0.15-0.69,0.83
			C274.29,87.69,275.66,87.67,273.46,88.64z"/>
		<polygon class="st32" points="275.71,83.5 283.76,78.85 284.02,79.05 274.28,89.78 273.95,89.62 		"/>
		<path class="st31" d="M282.65,83.15c0.07-0.31,0.24-0.53,0.37-0.5c0.13,0.03,0.18,0.3,0.11,0.61c-0.07,0.31-0.24,0.53-0.37,0.5
			C282.63,83.73,282.58,83.46,282.65,83.15z"/>
		<polygon class="st33" points="276,83.68 284.05,79.04 282.29,85.15 274.24,89.8 		"/>
		<polygon class="st34" points="276,83.68 284.05,79.04 274.24,89.8 		"/>
		<path class="st33" d="M276.23,87.04c0,0.23-0.05,0.49-0.15,0.74l-1.71,1.88c-0.03,0.02-0.07,0.03-0.1,0.04l1.02-3.54
			C275.85,86.08,276.23,86.4,276.23,87.04z"/>
		<path class="st31" d="M273.68,89.97c0.7-1.05,1.46-1.08,1.46-1.08l-0.32-1.57c0,0-1.01-0.19-1.79,1.97L273.68,89.97z"/>
		<path class="st31" d="M276.37,86.89c-0.12-0.21-0.87,0.36-1.17,0.33c-0.31-0.04-1.25-0.11-1.25-0.11
			c-0.24,0.27-0.44,0.79-0.58,1.49c0,0,1.58-0.82,1.86-0.84C275.52,87.74,276.62,87.32,276.37,86.89z"/>
		<path class="st31" d="M275.83,87.77c-0.09-0.16-0.5-0.01-0.72-0.04c-0.23-0.03-0.65,0.08-0.65,0.08l-0.05,0.4
			c0,0,0.54,0.13,0.76,0.12C275.37,88.32,276.01,88.09,275.83,87.77z"/>
		<path class="st31" d="M275.63,88.31c-0.09-0.16-0.4-0.01-0.63-0.03c-0.23-0.03-0.65,0.08-0.65,0.08l-0.05,0.4
			c0,0,0.54,0.13,0.76,0.12C275.26,88.86,275.82,88.63,275.63,88.31z"/>
		<path class="st31" d="M283.02,82.81c-0.18-0.15-1,0.1-0.93,0.29c0.06,0.19,0.82,0,0.93-0.05V82.81z"/>
		<path class="st31" d="M282.95,83.07c-0.11-0.13-0.52,0.24-0.47,0.42c0.05,0.18,0.44-0.11,0.49-0.18L282.95,83.07z"/>
		<path class="st31" d="M282.95,83.37c-0.1-0.11-0.46,0.22-0.42,0.38c0.05,0.16,0.39-0.11,0.44-0.17L282.95,83.37z"/>
	</g>
	<path class="st27" d="M272.45,87.74c1.06-0.28,2.01,2.04,1.51,3.16c-0.52,1.15-8.3,3.45-9.87,3.25c-1.56-0.2-1.49-1.08-1.42-2.01
		C262.75,91.09,271.19,88.08,272.45,87.74z"/>
	<path class="st0" d="M277.38,78.59c-0.65-0.78-1.37-1.42-2.14-1.79c-1.03-0.77-2.07-1.05-2.93-1.12c-0.29-1-0.63-1.85-0.63-1.85
		s-0.9-0.71-1.84-1.34c-0.17-0.01-0.33-0.01-0.5-0.01c-0.43,0-0.84,0.02-1.25,0.05c0.39,1.2,0.45,2.29,0.41,3.12
		c-2.68,1.27-4.2,3-5.03,4.95c1.51,0.83,3.58,1.35,5.87,1.35C273.13,81.95,276.33,80.53,277.38,78.59z M267.56,77.33
		c-0.01,0-0.01,0.01-0.01,0.01c0-0.01,0.01-0.02,0.01-0.02C267.56,77.32,267.56,77.32,267.56,77.33z"/>
	<path class="st35" d="M274.34,73.89c0,0,1.39-2.9,0.68-4.55c-1.25-2.88-3.37-3.37-4.92-2.7c-1.56,0.66,0.86,5.26,0.86,5.26
		L274.34,73.89z"/>
	<path class="st31" d="M273.75,77.79c0,0-0.84,0.68-1.56,0.55c-1-0.19-3.08-0.8-3.33-2.87c-0.25-2.07-1.38-1.88-1.63-3.57
		c-0.25-1.69-0.44-3.2,0.56-3.89c1-0.69,2.69-1.38,3.95-0.94c1.25,0.44,2.62,1.72,3.07,3.57C275.25,72.45,274.12,76.97,273.75,77.79
		z"/>
	<path class="st35" d="M269.97,75.99c0,0,1.33-4.2-0.42-6.35c-1.75-2.14-2.09-1.76-2.27-1.55c-0.88,1.03-0.73,3.34,0.01,4.66
		c0.31,0.56,1.05,2.38,1.05,2.38l0.52,0.32l0.07-1.65l0.6,0.4l-0.12,1.44L269.97,75.99z"/>
	<path class="st35" d="M275.04,69.91c-1.19-1.9-4.94-4.51-4.72,2.49c-0.42,0.2-3.5-2.69-3.31-3.74c0.23-1.29,2.66-2.31,3.86-2.14
		C273.37,66.87,275.04,69.91,275.04,69.91z"/>
	<path class="st31" d="M268.52,74.22c-0.18-0.48-0.22-1.17,0.05-1.38c0.27-0.21,0.85,0.21,0.94,0.7c0.08,0.44,0.05,0.95-0.22,1.16
		C269.02,74.92,268.7,74.7,268.52,74.22z"/>
	<path class="st0" d="M282.16,87.85c0,0,0.01-0.01,0.01-0.01c0.62-0.82,1.46-2.35,0.85-3.79c0.03-0.23,0.05-0.44,0.05-0.61
		c0.02-0.06,0.04-0.11,0.06-0.18c0.07-0.31,0.02-0.58-0.11-0.61c0,0-0.01,0-0.01,0l1.04-3.62L284,79.06l0.01-0.01l-0.26-0.2
		l-4.48,2.59c-0.56-1-1.2-2-1.9-2.84c0,0,0,0,0,0c-0.03-0.03-0.05-0.06-0.08-0.09c-0.12-0.13-0.23-0.26-0.35-0.39
		c-0.05-0.06-0.11-0.11-0.17-0.17c-0.11-0.11-0.22-0.22-0.34-0.32c-0.07-0.06-0.13-0.11-0.2-0.17c-0.11-0.09-0.22-0.17-0.33-0.25
		c-0.07-0.05-0.15-0.1-0.22-0.15c-0.11-0.07-0.21-0.13-0.32-0.19c-0.04-0.02-0.08-0.05-0.13-0.07c-0.07-0.05-0.14-0.1-0.21-0.15
		c-0.06-0.04-0.11-0.08-0.17-0.12c-0.14-0.09-0.28-0.17-0.42-0.24c-0.07-0.03-0.13-0.06-0.2-0.09c0,0-0.01,0-0.01,0
		c0.27-1.09,0.55-2.5,0.65-3.73c0.29-0.97,0.53-2.23,0.14-3.13c-1.15-2.66-3.05-3.28-4.56-2.83c-1.1,0.05-2.73,0.77-3.28,1.72
		c-0.77,1.09-0.61,3.26,0.1,4.53c0.31,0.56,1.05,2.38,1.05,2.38l0.17,0.11c0,0.02,0,0.05,0,0.07c0,0.01,0,0.02,0,0.03
		c0,0.11,0,0.21-0.01,0.31c0,0,0,0,0,0c-2.66,1.26-4.18,2.97-5.01,4.9c-0.05,0.05-0.11,0.11-0.16,0.17c-0.82,1.21-0.9,6.6-0.94,8.31
		c-0.04,1.63-0.68,4.02,0.55,4.76c0.12,0.07,0.23,0.13,0.34,0.18c0.25,8.05-2.27,13.81-1.96,29.3c0,0.12,0.02,0.24,0.04,0.35
		c0,0.02,0.01,0.05,0.02,0.07c0.03,0.11,0.06,0.21,0.1,0.3c0.01,0.01,0.01,0.02,0.02,0.03c0.04,0.09,0.09,0.17,0.15,0.24
		c0.01,0.01,0.02,0.03,0.03,0.04c0.06,0.08,0.13,0.15,0.21,0.22c0.01,0.01,0.02,0.02,0.03,0.03c0.08,0.07,0.16,0.13,0.25,0.19
		c0,0,0.01,0.01,0.01,0.01c0.1,0.06,0.2,0.11,0.3,0.16c0.01,0.01,0.02,0.01,0.04,0.02c0.22,0.1,0.45,0.17,0.7,0.23
		c0.01,0,0.01,0,0.02,0l0,0c0.33,0.08,0.69,0.13,1.04,0.16c0.04,2.95,0.05,5.96,0.04,8.9c0,0.06,0.01,0.12,0.03,0.19
		c0.01,0.02,0.01,0.04,0.02,0.06c0.01,0.04,0.03,0.09,0.05,0.14c0.01,0.02,0.03,0.05,0.04,0.07c0.02,0.05,0.05,0.09,0.08,0.13
		c0.02,0.02,0.03,0.05,0.05,0.07c0.04,0.05,0.07,0.09,0.12,0.14c0.02,0.02,0.04,0.04,0.06,0.06c0.05,0.05,0.11,0.1,0.17,0.15
		c0.01,0.01,0.02,0.02,0.04,0.03c0.13,0.1,0.29,0.19,0.46,0.25c-0.07,0.43-0.14,0.98-0.14,1.62c0,1.42,1.16,2.47,2.19,2.08
		c0.89-0.34,0.1-2.78-0.29-3.86c0.33-0.17,0.66-0.43,1.01-0.8c0.25-0.95,0.36-10.34,1.05-17.8l2.51-1.6
		c0.24,7.66,0.3,14.83,0.34,14.88c0.06,0.09,0.13,0.16,0.19,0.23c0.02,0.02,0.04,0.04,0.06,0.06c0.05,0.05,0.09,0.09,0.14,0.13
		c0.02,0.02,0.04,0.04,0.06,0.05c0.06,0.05,0.11,0.09,0.17,0.12c0.01,0.01,0.02,0.01,0.03,0.02c0.07,0.04,0.13,0.07,0.2,0.1
		c0.01,0.01,0.03,0.01,0.04,0.02c0.05,0.02,0.11,0.04,0.16,0.05c0.01,0,0.03,0.01,0.04,0.01c0.06,0.01,0.13,0.02,0.19,0.03
		c0,0,0,0,0,0c0.14,0.01,0.27-0.01,0.41-0.04c1.35,0.8,3.73,1.99,4.77,1.1c0.53-0.45-1.3-1.7-3.13-2.32
		c0.25-0.32,0.41-0.57,0.4-0.58c-0.05-3.27,0.03-6.2,0.17-8.89c0.01,0,0.01-0.01,0.02-0.01c0.02-0.4,0.04-0.79,0.06-1.18
		c2.92-1.59,2.82-5.13,2.79-5.56c-0.39-5.61-0.47-12.63-0.47-15.67c0-1.58,0.19-5.98,0-10.29l0.03-0.02
		c0.03,0.02,0.05,0.05,0.08,0.07c0,0.04,0.01,0.07,0.02,0.1c0,0.02,0.01,0.04,0.01,0.06c0.02,0.06,0.04,0.11,0.07,0.15
		c0.75,1.06,2.32,1.41,3.13,0.59c0.05-0.05,0.11-0.11,0.17-0.19c0.01-0.01,0.02-0.02,0.03-0.03
		C282.01,88.05,282.08,87.96,282.16,87.85z M267.56,77.32c0,0,0,0.01,0,0.01c-0.01,0-0.01,0.01-0.01,0.01
		C267.55,77.33,267.56,77.32,267.56,77.32z"/>
</g>
<g>
	<polygon class="st36" points="429.45,171.41 335.46,117.68 278.03,166.74 372.02,220.48 	"/>
	<polygon class="st37" points="429.45,169.42 335.46,115.68 278.03,164.75 372.02,218.48 	"/>
	<path class="st3" d="M421.26,173.27c-3.05-8.49-2.48-17.98,0-30.13l-83.15-17.36l-50.74,43.36l83.06,47.49L421.26,173.27z"/>
	<path class="st38" d="M376.56,191.08l42.84-35.7c0.31-3.78,0.96-7.83,1.86-12.23l-83.15-17.36l-50.74,43.36l83.06,47.49l4.8-4.1
		C374.29,204.88,373.64,196.97,376.56,191.08z"/>
	<path class="st37" d="M282.74,130.25L373.6,183c-2.47,14.95-3.23,22.65,0,33.84l-2.78,0.07l-88.17-52.34
		C278.59,154.84,278.74,144.81,282.74,130.25z"/>
	<polygon class="st37" points="429.45,139.07 335.46,85.33 278.12,132.9 372.02,188.14 	"/>
	<polygon class="st2" points="429.45,136.65 335.46,82.92 278.12,130.49 372.02,185.72 	"/>
	<polygon class="st37" points="354.99,101.3 313.3,101.3 278.12,130.49 336.14,164.61 354.99,164.61 	"/>
	<g>
		<path class="st2" d="M370.77,182.17l-86.75-51.03l53.92-44.73l86.82,49.63L370.77,182.17z M290.58,130.62l79.79,46.93l47.85-40.89
			l-79.88-45.67L290.58,130.62z"/>
	</g>
	<polygon class="st39" points="436.17,138.21 436.17,136.63 374.52,72.32 293.33,98.73 354.99,164.61 	"/>
	<polygon class="st40" points="436.17,136.63 374.52,70.74 293.33,97.15 354.99,163.04 	"/>
	<polygon class="st3" points="431.77,136.83 431.85,122.72 374.73,75.87 299.62,100.31 356.66,161.26 	"/>
	<polygon class="st38" points="356.71,155.12 431.81,129.59 431.85,122.72 374.73,75.87 299.62,100.31 356.42,161.01 	"/>
	<polygon class="st40" points="435.97,125.01 436.17,123.08 374.52,59.06 293.33,85.47 354.99,151.36 	"/>
	<polygon class="st39" points="436.17,123.08 374.52,57.19 293.33,83.6 354.99,149.49 	"/>
	<polygon class="st41" points="369,115.94 323.59,115.94 348.79,142.88 369,142.88 	"/>
	<g class="st42">
		<path class="st43" d="M355.45,147.13l-58.48-62.5l77.08-25.08l58.48,62.5L355.45,147.13z M299.24,85.22l56.58,60.47l74.44-24.22
			L373.68,61L299.24,85.22z"/>
	</g>
	<g class="st42">
		<path class="st43" d="M356.42,142.66l-0.14-0.14L303.9,86.54l0.47-0.15l68.72-22.35l0.14,0.15l52.38,55.98l-0.48,0.15
			L356.42,142.66z M305.04,86.83l51.56,55.11l67.87-22.07L372.9,64.75L305.04,86.83z"/>
	</g>
	<path class="st44" d="M410.43,77.88l7.56,1.16c2.21,3.9,1.79,7.22,0.01,14.14l-8.52-0.44L410.43,77.88z"/>
	<path class="st45" d="M409.17,78.19l7.56,1.16c2.21,3.9,1.78,7.05,0,13.97l-7.56-1.16V78.19z"/>
	<polygon class="st44" points="418.08,93.1 321.91,68.43 272.96,116.96 272.96,118.22 369.13,142.89 	"/>
	<polygon class="st46" points="369,80.51 321.91,68.43 272.96,116.96 272.96,118.22 369,142.86 	"/>
	<polygon class="st45" points="416.86,92.79 321.91,67.17 272.96,116.96 369.13,141.63 	"/>
	<path class="st3" d="M415.47,81.08L322.22,63.6l-46.07,40.45l2.05,12.05l90.65,22.52L415.42,92
		C417.18,86.6,417.03,83.57,415.47,81.08z"/>
	<path class="st38" d="M368.85,134.69L415.9,86.8l0.23,2.68c0.94-3.87,0.64-6.34-0.66-8.4L322.22,63.6l-46.07,40.45l2.05,12.05
		l89.36,21.51L368.85,134.69z"/>
	<polygon class="st38" points="368.85,73.03 321.91,64.23 275.84,104.68 277.88,116.73 368.85,138.62 	"/>
	<polygon class="st45" points="417.52,81.38 321.91,56.14 272.96,104.36 272.96,105.93 369.13,130.6 	"/>
	<polygon class="st46" points="369.16,68.26 321.91,56.14 272.96,104.36 272.96,105.93 369.13,130.6 369.16,130.57 	"/>
	<polygon class="st44" points="418.08,79.24 321.91,54.57 272.96,104.36 369.13,129.03 	"/>
	<polygon class="st45" points="355.62,63.21 326,55.62 320.88,55.62 272.96,104.36 337.5,120.91 356.17,120.91 	"/>
	<g class="st47">
		<path class="st48" d="M366.73,125.63l-0.35-0.09l-86.65-22.23l44.58-45.36l0.35,0.09l86.65,22.23L366.73,125.63z M282.16,102.64
			l84.18,21.6l42.54-43.28l-84.18-21.6L282.16,102.64z"/>
	</g>
	<polygon class="st49" points="417.66,82.68 417.66,81.74 337.96,37.95 276.51,76.19 356.21,120.93 	"/>
	<polygon class="st50" points="417.66,81.74 337.96,37 276.51,75.25 356.21,119.98 	"/>
	<polygon class="st3" points="414,82.4 415.02,70.05 336.81,35.64 275.36,73.88 355.06,118.62 	"/>
	<polygon class="st38" points="360.18,108.55 414.57,75.47 415.02,70.05 336.81,35.64 275.36,73.88 355.06,118.62 360.56,115.24 	
		"/>
	<path class="st50" d="M356.92,106.31L280.9,64.19c-2.23,5.46-2.5,8.85,0,13.63c0,0,74.55,41.23,75.67,41.81
		C354.93,115.96,354.48,112.35,356.92,106.31z"/>
	<polygon class="st50" points="417.66,69.53 417.66,68.4 337.96,24.8 276.51,63.04 356.21,107.77 	"/>
	<polygon class="st51" points="417.66,68.4 337.96,23.67 276.51,61.91 356.21,106.64 	"/>
	<polygon class="st50" points="364.59,61.29 296.65,49.38 276.51,61.91 334.62,94.52 364.59,94.52 	"/>
	<g class="st42">
		<path class="st52" d="M354.94,101.52l-0.33-0.18L285.23,62.4l54-33.61l0.32,0.18l69.38,38.94L354.94,101.52z M287.7,62.34
			l67.2,37.72l51.56-32.09l-67.2-37.71L287.7,62.34z"/>
	</g>
	<polygon class="st53" points="413.44,47.01 413.44,45.79 332.72,19.53 284.08,65.91 364.8,94.14 	"/>
	<polygon class="st54" points="413.44,45.79 332.32,18.19 283.68,64.57 364.41,92.8 	"/>
	<path class="st38" d="M409.4,48.61c-1.58-5.58-1.7-9.57-0.23-17.25l-76.45-15.61l-48.64,46.38l80.73,28.23L409.4,48.61z"/>
	<path class="st3" d="M366.96,88.34l42.45-39.73c-0.63-2.24-1.03-4.22-1.18-6.29l-41.26,38.35V88.34z"/>
	<path class="st54" d="M285.45,45.62l80.67,27.51c-2.62,6.22-2.32,11.48-0.88,18.71l-80.19-26.97
		C282.17,57.85,283.14,53.95,285.45,45.62z"/>
	<polygon class="st54" points="413.2,29.8 413.2,28.23 332.48,1.57 283.84,47.95 363.69,76.88 	"/>
	<path class="st36" d="M278.12,130.49L372,185.72c-2.55,15.44-3.34,23.4,0,34.97l-93.97-54
		C273.83,156.63,273.99,145.53,278.12,130.49z"/>
	<path class="st53" d="M283.84,46.38l80.91,28.04c-2.62,6.22-1.99,12.03,0,19.74l-80.43-27.93
		C281.45,59.2,281.53,54.72,283.84,46.38z"/>
	<polygon class="st55" points="413.2,28.23 332.48,0 283.84,46.38 364.57,74.6 	"/>
	<g>
		<polygon class="st56" points="358.33,9.04 388.83,51.46 413.2,28.23 		"/>
		<polygon class="st56" points="304.31,26.87 283.84,46.38 329.92,62.49 		"/>
	</g>
	<path class="st49" d="M356.36,106.55l-79.85-44.64c-2.33,5.71-2.62,9.27,0,14.28l79.7,44.73
		C354.15,116.73,353.6,113.39,356.36,106.55z"/>
	<g>
		<path class="st57" d="M362.42,69.98l-0.36-0.13l-70.13-24.52l42.7-40.71l0.36,0.13l70.14,24.52L362.42,69.98z M294.28,44.82
			l67.83,23.71l40.65-38.76L334.93,6.06L294.28,44.82z"/>
	</g>
	<path class="st38" d="M372.74,205.08c0.46,0.15,20.67-16.31,20.67-16.31l15.12-15.12L372.74,205.08z"/>
	<path class="st38" d="M389.66,183.73c0.33,0.11,14.96-11.8,14.96-11.8l10.95-10.94L389.66,183.73z"/>
	<path class="st38" d="M390.24,195.61c0.33,0.11,15.13-11.58,15.13-11.58l11.11-10.78L390.24,195.61z"/>
	<path class="st38" d="M368.29,154.18c0.23,0.14,19.59-5.22,19.59-5.22l37.17-12.97L368.29,154.18z"/>
	<path class="st58" d="M281.14,112.08c0.13,0.23,19.71,5.09,19.71,5.09l38.7,6.97L281.14,112.08z"/>
	<path class="st58" d="M314.53,121.03c0.09,0.2,14.31,4.59,14.31,4.59l37.23,8.42L314.53,121.03z"/>
	<polygon class="st58" points="334.68,134.62 345.23,146.53 355.09,154.95 	"/>
	<path class="st38" d="M361.1,111.46c0.2,0.07,13.04-6.85,13.04-6.85l37.24-23.63L361.1,111.46z"/>
	<path class="st38" d="M369.77,82.99c0.29-0.03,13.11-11.93,13.11-11.93l24.4-25.84L369.77,82.99z"/>
	<path class="st59" d="M313.87,162.14l52.04,30.62c-1.41,8.56-1.85,12.97,0,19.38l-52.09-29.94
		C311.5,176.63,311.58,170.48,313.87,162.14z"/>
	<g>
		<path class="st60" d="M360.5,91.69l-71.97-24.95l-0.11-0.26c-2.25-5.51-2.34-9.13-0.4-16.14l0.18-0.65l72.24,25l-0.26,0.62
			c-2.02,4.81-1.52,9.23,0.03,15.25L360.5,91.69z M289.48,65.73l69.22,24c-1.29-5.35-1.67-9.73,0.06-14.3l-69.71-24.12
			C287.39,57.54,287.5,60.79,289.48,65.73z"/>
	</g>
	<polygon class="st61" points="345.1,13.83 337.24,11.08 303.05,43.68 310.91,46.42 	"/>
</g>
<g>
	<polygon class="st62" points="258.91,43.53 231.54,59.32 231.54,81.88 258.91,66.08 	"/>
	<polygon class="st62" points="259.81,72.97 256.97,63.14 252.81,67.14 	"/>
</g>
<g>
	<polygon class="st63" points="409.67,218.12 348.13,258.02 346.61,261.29 340.95,262.17 271.83,297.7 272.79,300.14 358.93,349.88 
		363.16,350.43 426.22,311.4 427.78,308.89 433.4,307.26 501.01,270.85 500.05,268.41 413.9,218.67 	"/>
	<polygon class="st64" points="409.67,216.02 348.13,255.93 346.61,259.2 340.95,260.07 271.83,295.61 272.79,298.05 358.93,347.78 
		363.16,348.34 426.22,309.31 426.18,306.8 433.4,305.16 501.01,268.75 500.05,266.31 413.9,216.58 	"/>
	<g>
		<polygon class="st65" points="501.01,268.75 500.05,266.31 416.81,218.25 416.81,315.13 426.22,309.31 426.18,306.8 433.4,305.16 
					"/>
		<polygon class="st65" points="325.32,268.11 271.83,295.61 272.79,298.05 325.32,328.38 		"/>
	</g>
	<polygon class="st66" points="498.75,269.97 411.33,220.85 348.13,255.93 346.61,259.2 340.95,260.07 280.09,297.1 365.85,346.68 
		426.22,309.31 426.18,306.8 433.4,305.16 	"/>
	<path class="st67" d="M348.62,260.66c2.22-23.25,28.69-35.21,61.96-39.91l83.89,48.43l-70.4,35.34L348.62,260.66z"/>
	<polygon class="st68" points="484.41,270.66 404.87,221.64 410.58,220.75 494.46,269.18 	"/>
	<path class="st68" d="M411.68,285.95c-24.82-9.37-46.22-21.17-61.31-32.97c-0.89,2.41-1.5,4.96-1.75,7.68l75.45,43.86l17.89-8.98
		C432.21,293.06,422.03,289.86,411.68,285.95z"/>
	<path class="st67" d="M349.14,260.35c-13.95-11.06-37.7,3.3-63.96,29.66c-1.81,2.03-3.29,4.11-5.16,6.12l83.88,48.43l57.2-47.06
		L349.14,260.35z"/>
	<polygon class="st68" points="373.82,336.39 285.18,290.01 280.02,296.13 363.9,344.56 	"/>
	<path class="st69" d="M494.46,269.18l-0.6-0.35c-32.28,4.63-66.85,9.13-69.85,31.13c-10.74-13.22-32.28,15.26-59.53,44.21
		l60.15-39.94L494.46,269.18z"/>
	<path class="st66" d="M428.13,302.24c0-2.04-1.44-2.86-3.21-1.82c-1.77,1.04-3.2,3.53-3.2,5.58c0,2.05,1.44,2.86,3.21,1.83
		C426.7,306.78,428.13,304.28,428.13,302.24z"/>
	<polygon class="st67" points="369.86,337.52 342.87,322.83 368.72,339.12 	"/>
	<polygon class="st67" points="332.96,318.72 283.61,291.81 281.85,293.11 	"/>
	<polygon class="st67" points="355.4,335.05 337.89,322.36 315.57,313.43 	"/>
	<path class="st66" d="M374.32,339.28c0,0,25.49-21.3,31.84-24.91c9.25-5.25,9.16-5.14,15.98-8.22L374.32,339.28z"/>
	<path class="st66" d="M423.25,305.64c0,0,27.1-16.43,33.9-19.11c9.9-3.9,25.36-12,32.55-14.1L423.25,305.64z"/>
	<path class="st70" d="M427.1,302.8c0.34-0.08,0.67-0.15,1-0.2c0.01-0.12,0.03-0.24,0.03-0.36c0-2.04-1.44-2.86-3.21-1.82
		c-1.56,0.92-2.86,2.98-3.14,4.85C423.02,304.24,424.9,303.33,427.1,302.8z"/>
	<path class="st71" d="M419.47,302.62c0,0-10.57,1.8-26.47,17.15C393,319.78,407.41,301.45,419.47,302.62z"/>
	<polygon class="st71" points="398.17,310.92 385.95,324.87 375.92,334.11 	"/>
	<path class="st71" d="M428.72,297.1c0,0,3.05-14.33,36.07-20.79C464.79,276.31,438.12,282.77,428.72,297.1z"/>
	<polygon class="st71" points="457.7,280.9 480.38,274.6 484.45,272.29 	"/>
	<polygon class="st68" points="373.96,334.58 302.29,296.04 376.31,332.7 	"/>
</g>
<polygon class="st0" points="518.24,195.37 518.24,195.37 481.92,174.4 479.74,174.64 456.85,187.85 456.85,187.85 426.31,205.49 
	425.99,206.48 425.99,206.48 425.9,206.74 425.9,209.55 462.3,230.57 462.97,230.5 462.97,230.5 464.48,230.33 512.67,202.51 
	512.67,202.51 517.91,199.48 518.32,198.23 518.32,195.42 "/>
<g>
	<g>
		<polygon class="st72" points="482.43,176.41 484.6,176.18 521,197.19 520.6,198.45 467.16,229.3 464.98,229.54 428.58,208.52 
			428.58,205.71 		"/>
		<polygon class="st73" points="465.65,187.38 463.42,187.38 482.43,176.41 484.6,176.18 521,194.39 521,197.19 520.6,198.45 
			467.16,229.3 465.65,229.46 		"/>
		<path class="st74" d="M516.67,192.22l4.33,2.16v2.81l-0.4,1.26l-5.24,3.03C516.07,198.33,516.51,195.23,516.67,192.22z"/>
		<polygon class="st75" points="482.43,173.61 484.6,173.37 521,194.39 520.6,195.64 467.16,226.5 464.98,226.73 428.58,205.71 
			428.99,204.46 		"/>
		<polygon class="st76" points="448.96,217.48 428.58,205.71 428.99,204.46 459.53,186.82 		"/>
		<polygon class="st77" points="455.85,188.95 459.53,186.82 448.96,217.48 445.92,215.72 		"/>
		<polygon class="st76" points="499.25,181.83 521,194.39 520.6,195.64 488,214.46 		"/>
		<polygon class="st78" points="482.77,174.85 518.45,195.45 469.32,223.81 433.64,203.21 		"/>
		<polygon class="st72" points="434.57,205.48 439.99,208.61 438.58,209.42 433.16,206.29 		"/>
		<polygon class="st72" points="459.97,220.15 465.39,223.27 463.98,224.09 458.56,220.96 		"/>
		<polygon class="st79" points="482.69,175.39 517.59,195.44 469.4,223.26 434.5,203.22 		"/>
		<polygon class="st75" points="460.11,220.43 464.92,223.26 464,223.79 459.19,220.96 		"/>
		<polygon class="st75" points="434.56,205.72 439.37,208.55 438.45,209.08 433.64,206.26 		"/>
		<polygon class="st80" points="464.98,226.42 467.16,226.19 520.6,195.34 520.92,194.34 521,194.39 520.6,195.64 467.16,226.5 
			464.98,226.73 428.58,205.71 428.67,205.45 		"/>
		<polygon class="st81" points="442.31,214.67 450.94,219.65 450.94,220.51 442.31,215.53 		"/>
		<path class="st76" d="M462.09,222.08c-0.99-0.5-1.95-0.84-2.73-1.01l-0.18-0.1l0.92-0.53l4.81,2.82l-0.53,0.31
			C463.81,223.06,463.01,222.54,462.09,222.08z"/>
		<path class="st76" d="M435.5,206.78c-0.54-0.27-1.07-0.49-1.57-0.69l0.63-0.36l4.81,2.82l-0.58,0.34
			C438.05,208.21,436.88,207.46,435.5,206.78z"/>
		<polygon class="st76" points="510.2,202.86 515.02,200.08 515.02,200.84 510.2,203.62 		"/>
		<polygon class="st76" points="504.12,206.44 508.94,203.65 508.94,204.42 504.12,207.2 		"/>
		<polygon class="st82" points="482.84,175.7 434.84,203.41 434.5,203.22 482.69,175.39 517.59,195.44 517.41,195.55 		"/>
		<polygon class="st75" points="482.73,176.18 435.6,203.39 435.19,203.15 482.58,175.79 516.9,195.5 516.65,195.65 		"/>
		<g class="st83">
			<polygon class="st84" points="498.08,184.23 517.59,195.44 489.76,211.51 			"/>
			<polygon class="st84" points="462.37,187.13 454.03,214.43 434.5,203.22 			"/>
		</g>
		<g>
			<polygon class="st85" points="498.11,192.57 506.76,197.56 505.68,198.19 497.03,193.19 			"/>
			<polygon class="st85" points="487.75,186.59 496.4,191.58 495.32,192.2 486.67,187.21 			"/>
			<polygon class="st85" points="478.25,181.1 485.18,185.1 484.1,185.73 477.17,181.73 			"/>
			<polygon class="st85" points="485.43,188.53 503.91,199.21 502.83,199.83 484.34,189.16 			"/>
			<polygon class="st85" points="480.28,185.56 483.75,187.56 482.67,188.19 479.2,186.19 			"/>
			<polygon class="st85" points="475.51,182.81 478.98,184.81 477.9,185.44 474.43,183.43 			"/>
			<polygon class="st85" points="493.09,196.25 501.06,200.85 499.98,201.48 492.01,196.87 			"/>
			<polygon class="st85" points="476.09,186.43 490.7,194.87 489.62,195.49 475.01,187.06 			"/>
			<polygon class="st85" points="472.55,184.39 474.53,185.53 473.45,186.16 471.47,185.01 			"/>
			<polygon class="st85" points="486.29,195.61 498.22,202.49 497.13,203.12 485.21,196.23 			"/>
			<polygon class="st85" points="469.7,186.03 475.33,189.28 474.25,189.91 468.62,186.66 			"/>
			<polygon class="st85" points="476.6,190.01 484.72,194.7 483.64,195.33 475.52,190.64 			"/>
			<polygon class="st85" points="492.61,202.55 495.37,204.14 494.29,204.76 491.53,203.17 			"/>
			<polygon class="st85" points="466.86,187.68 473.79,191.68 472.71,192.3 465.77,188.3 			"/>
			<polygon class="st85" points="475.47,192.65 491.38,201.84 490.3,202.46 474.38,193.27 			"/>
			<polygon class="st85" points="476.94,196.79 492.52,205.78 491.44,206.41 475.86,197.41 			"/>
			<polygon class="st85" points="464.01,189.32 475.45,195.93 474.37,196.55 462.93,189.95 			"/>
			<polygon class="st85" points="484.08,204.2 489.67,207.43 488.59,208.05 483,204.82 			"/>
			<polygon class="st85" points="461.16,190.97 464.63,192.97 463.54,193.59 460.08,191.59 			"/>
			<polygon class="st85" points="480.21,201.96 482.78,203.45 481.69,204.07 479.12,202.59 			"/>
			<polygon class="st85" points="466.94,194.3 478.9,201.21 477.82,201.83 465.85,194.93 			"/>
			<polygon class="st85" points="476.39,203.05 486.82,209.07 485.74,209.7 475.31,203.67 			"/>
			<polygon class="st85" points="458.31,192.61 462.97,195.3 461.89,195.92 457.23,193.23 			"/>
			<polygon class="st85" points="469.75,199.22 475.29,202.41 474.21,203.04 468.67,199.84 			"/>
			<polygon class="st85" points="464.69,196.29 468.28,198.37 467.2,198.99 463.6,196.91 			"/>
			<polygon class="st85" points="476.6,206.46 483.98,210.72 482.89,211.34 475.51,207.08 			"/>
			<polygon class="st85" points="455.46,194.25 456.99,195.14 455.91,195.76 454.38,194.88 			"/>
			<polygon class="st85" points="468.51,201.78 475.44,205.79 474.36,206.41 467.43,202.41 			"/>
			<polygon class="st85" points="458.63,196.08 467.69,201.31 466.61,201.94 457.55,196.71 			"/>
			<polygon class="st85" points="467.19,204.31 481.13,212.36 480.05,212.98 466.11,204.94 			"/>
			<polygon class="st85" points="460.85,200.65 465.62,203.41 464.54,204.03 459.77,201.28 			"/>
			<polygon class="st85" points="452.62,195.9 459.55,199.9 458.47,200.53 451.53,196.52 			"/>
			<polygon class="st85" points="474.03,211.55 478.28,214 477.2,214.63 472.95,212.18 			"/>
			<polygon class="st85" points="449.77,197.54 452.56,199.16 451.48,199.78 448.69,198.17 			"/>
			<polygon class="st85" points="468.37,208.28 472.84,210.86 471.76,211.49 467.28,208.91 			"/>
			<polygon class="st85" points="453.91,199.93 467.25,207.63 466.17,208.26 452.82,200.56 			"/>
			<polygon class="st85" points="467.38,211 475.43,215.65 474.35,216.27 466.3,211.62 			"/>
			<polygon class="st85" points="446.92,199.19 453.29,202.87 452.21,203.49 445.84,199.81 			"/>
			<polygon class="st85" points="454.34,203.47 466.71,210.61 465.63,211.24 453.25,204.09 			"/>
			<polygon class="st85" points="467.52,214.37 472.58,217.29 471.5,217.92 466.43,214.99 			"/>
			<polygon class="st85" points="459.84,209.93 466.7,213.89 465.61,214.52 458.75,210.56 			"/>
			<polygon class="st85" points="444.07,200.83 458.5,209.16 457.41,209.78 442.99,201.46 			"/>
		</g>
	</g>
	<polygon class="st86" points="455.13,192.35 466.36,185.87 480.85,194.24 481.02,183.53 483.41,195.72 499.65,205.09 471.23,221.5 
		455.13,212.21 	"/>
</g>
<polygon class="st0" points="131.5,94.53 129.97,95.16 130.17,95.29 129.92,95.14 129.92,109.84 128.28,110.79 130.08,111.83 
	129.93,111.92 179.19,140.36 192.62,148.17 192.62,148.11 192.74,148.18 247.47,116.39 247.47,115.05 244.88,113.55 245.05,112.55 
	245.53,109.59 247.47,108.78 246.3,108.11 247.47,107.63 247.47,106.77 244.68,105.15 244.95,103.55 244.95,103.55 245.3,101.52 
	247.47,100.98 246.31,100.31 247.47,100.02 245.98,99.16 153.39,90.85 129.92,77.05 129.92,93.61 "/>
<g>
	<polygon class="st87" points="279.71,278.02 230.16,251.2 167.25,289.02 214.47,315.69 	"/>
	<g>
		<polygon class="st88" points="191.74,293.44 180.85,287.17 182.3,286.23 193.19,292.5 		"/>
		<polygon class="st88" points="204.79,300.95 193.9,294.68 195.34,293.74 206.23,300.01 		"/>
		<polygon class="st88" points="216.75,307.84 208.03,302.81 209.47,301.87 218.2,306.9 		"/>
		<polygon class="st88" points="207.93,298.1 184.65,284.7 186.1,283.76 209.37,297.16 		"/>
		<polygon class="st88" points="214.4,301.83 210.04,299.32 211.48,298.38 215.85,300.9 		"/>
		<polygon class="st88" points="220.41,305.29 216.04,302.78 217.49,301.84 221.85,304.35 		"/>
		<polygon class="st88" points="198.49,288.02 188.45,282.23 189.89,281.29 199.93,287.08 		"/>
		<polygon class="st88" points="219.89,300.34 201.49,289.74 202.93,288.81 221.33,299.4 		"/>
		<polygon class="st88" points="224.35,302.91 221.86,301.47 223.3,300.53 225.79,301.97 		"/>
		<polygon class="st88" points="207.26,288.41 192.24,279.77 193.69,278.82 208.7,287.47 		"/>
		<polygon class="st88" points="228.14,300.44 221.05,296.36 222.5,295.42 229.58,299.5 		"/>
		<polygon class="st88" points="219.46,295.44 209.23,289.55 210.67,288.61 220.9,294.5 		"/>
		<polygon class="st88" points="199.51,279.3 196.04,277.3 197.48,276.36 200.95,278.36 		"/>
		<polygon class="st88" points="231.94,297.97 223.21,292.94 224.65,292.01 233.38,297.03 		"/>
		<polygon class="st88" points="221.1,291.73 201.06,280.19 202.5,279.25 222.54,290.79 		"/>
		<polygon class="st88" points="219.45,286.12 199.83,274.83 201.28,273.89 220.89,285.19 		"/>
		<polygon class="st88" points="235.73,295.5 221.33,287.21 222.77,286.27 237.17,294.57 		"/>
		<polygon class="st88" points="210.67,276.42 203.63,272.36 205.07,271.42 212.11,275.48 		"/>
		<polygon class="st88" points="239.53,293.03 235.17,290.52 236.61,289.58 240.97,292.1 		"/>
		<polygon class="st88" points="215.55,279.23 212.31,277.36 213.75,276.42 216.99,278.29 		"/>
		<polygon class="st88" points="232.25,288.85 217.19,280.17 218.63,279.23 233.7,287.91 		"/>
		<polygon class="st88" points="220.56,277.46 207.43,269.89 208.87,268.95 222.01,276.52 		"/>
		<polygon class="st88" points="243.32,290.57 237.46,287.19 238.9,286.25 244.77,289.63 		"/>
		<polygon class="st88" points="228.92,282.27 221.95,278.26 223.39,277.32 230.36,281.33 		"/>
		<polygon class="st88" points="235.3,285.95 230.77,283.34 232.21,282.4 236.74,285.01 		"/>
		<polygon class="st88" points="220.51,272.78 211.22,267.43 212.67,266.49 221.96,271.84 		"/>
		<polygon class="st88" points="247.12,288.1 245.2,286.99 246.64,286.05 248.56,287.16 		"/>
		<polygon class="st88" points="230.7,278.64 221.97,273.62 223.41,272.68 232.14,277.7 		"/>
		<polygon class="st88" points="243.13,285.8 231.73,279.24 233.17,278.3 244.57,284.86 		"/>
		<polygon class="st88" points="232.57,275.07 215.02,264.96 216.46,264.02 234.01,274.13 		"/>
		<polygon class="st88" points="240.55,279.66 234.54,276.2 235.98,275.26 241.98,278.72 		"/>
		<polygon class="st88" points="250.91,285.63 242.19,280.61 243.63,279.67 252.36,284.69 		"/>
		<polygon class="st88" points="224.16,265.57 218.81,262.49 220.26,261.55 225.6,264.63 		"/>
		<polygon class="st88" points="254.71,283.16 251.19,281.14 252.63,280.2 256.16,282.23 		"/>
		<polygon class="st88" points="231.29,269.68 225.66,266.44 227.11,265.5 232.74,268.74 		"/>
		<polygon class="st88" points="249.5,280.17 232.7,270.49 234.15,269.55 250.94,279.23 		"/>
		<polygon class="st88" points="232.75,265.86 222.61,260.02 224.05,259.08 234.19,264.92 		"/>
		<polygon class="st88" points="258.51,280.7 250.48,276.07 251.93,275.14 259.95,279.76 		"/>
		<polygon class="st88" points="249.17,275.32 233.59,266.35 235.03,265.41 250.61,274.38 		"/>
		<polygon class="st88" points="232.79,261.23 226.4,257.56 227.85,256.62 234.23,260.29 		"/>
		<polygon class="st88" points="242.45,266.8 233.82,261.82 235.26,260.89 243.9,265.86 		"/>
		<polygon class="st88" points="262.3,278.23 244.14,267.77 245.59,266.83 263.75,277.29 		"/>
	</g>
	<polygon class="st89" points="215.7,250.08 189.2,266.01 215.7,266.01 	"/>
	<polygon class="st90" points="210.55,196.6 205.59,242.88 295.22,243.16 297.14,197.07 	"/>
	<polygon class="st91" points="296.4,214.74 229.46,202.73 206.23,236.91 205.59,242.88 290.24,243.14 295.59,234.31 	"/>
	<polygon class="st67" points="303.94,218.23 230.23,199.2 203.15,239.03 279.57,258.54 	"/>
	<g>
		<polygon class="st88" points="233.21,216.12 239.38,206.73 241.05,207.12 234.88,216.51 		"/>
		<polygon class="st88" points="225.83,227.38 231.99,217.98 233.66,218.37 227.5,227.77 		"/>
		<polygon class="st88" points="219.06,237.71 224,230.18 225.67,230.56 220.72,238.09 		"/>
		<polygon class="st88" points="230.59,227.83 243.76,207.74 245.43,208.13 232.26,228.21 		"/>
		<polygon class="st88" points="226.92,233.41 229.39,229.65 231.06,230.03 228.59,233.8 		"/>
		<polygon class="st88" points="223.52,238.6 225.99,234.83 227.66,235.22 225.19,238.98 		"/>
		<polygon class="st88" points="242.46,217.42 248.15,208.76 249.82,209.14 244.13,217.81 		"/>
		<polygon class="st88" points="230.35,235.88 240.76,220.01 242.43,220.4 232.02,236.27 		"/>
		<polygon class="st88" points="227.83,239.73 229.24,237.58 230.9,237.97 229.5,240.11 		"/>
		<polygon class="st88" points="244.03,222.73 252.53,209.77 254.2,210.15 245.7,223.11 		"/>
		<polygon class="st88" points="232.21,240.75 236.22,234.63 237.89,235.02 233.88,241.13 		"/>
		<polygon class="st88" points="237.13,233.25 242.92,224.43 244.58,224.81 238.79,233.64 		"/>
		<polygon class="st88" points="254.95,213.78 256.92,210.78 258.58,211.17 256.62,214.16 		"/>
		<polygon class="st88" points="236.6,241.76 241.54,234.23 243.2,234.61 238.27,242.14 		"/>
		<polygon class="st88" points="242.74,232.4 254.08,215.12 255.74,215.5 244.4,232.79 		"/>
		<polygon class="st88" points="250.2,228.72 261.3,211.8 262.97,212.18 251.87,229.11 		"/>
		<polygon class="st88" points="240.99,242.77 249.14,230.34 250.81,230.73 242.65,243.16 		"/>
		<polygon class="st88" points="261.7,218.88 265.69,212.81 267.36,213.2 263.37,219.27 		"/>
		<polygon class="st88" points="245.37,243.78 247.84,240.02 249.51,240.4 247.04,244.17 		"/>
		<polygon class="st88" points="258.94,223.1 260.77,220.3 262.44,220.69 260.61,223.48 		"/>
		<polygon class="st88" points="249.49,237.51 258.01,224.51 259.68,224.9 251.16,237.9 		"/>
		<polygon class="st88" points="262.64,225.16 270.08,213.82 271.74,214.21 264.3,225.55 		"/>
		<polygon class="st88" points="249.76,244.8 253.08,239.74 254.74,240.12 251.42,245.18 		"/>
		<polygon class="st88" points="257.91,232.37 261.85,226.36 263.52,226.74 259.58,232.75 		"/>
		<polygon class="st88" points="254.3,237.87 256.86,233.97 258.53,234.35 255.96,238.26 		"/>
		<polygon class="st88" points="269.2,222.85 274.46,214.84 276.13,215.22 270.87,223.24 		"/>
		<polygon class="st88" points="254.14,245.81 255.23,244.15 256.9,244.54 255.81,246.2 		"/>
		<polygon class="st88" points="263.44,231.64 268.37,224.11 270.05,224.49 265.1,232.03 		"/>
		<polygon class="st88" points="256.4,242.37 262.85,232.53 264.52,232.92 258.07,242.76 		"/>
		<polygon class="st88" points="268.91,231 278.84,215.85 280.51,216.24 270.58,231.38 		"/>
		<polygon class="st88" points="264.4,237.88 267.8,232.69 269.46,233.08 266.06,238.26 		"/>
		<polygon class="st88" points="258.53,246.83 263.47,239.3 265.13,239.68 260.19,247.21 		"/>
		<polygon class="st88" points="280.2,221.48 283.23,216.86 284.89,217.25 281.87,221.86 		"/>
		<polygon class="st88" points="262.91,247.84 264.9,244.8 266.57,245.19 264.58,248.23 		"/>
		<polygon class="st88" points="276.16,227.63 279.35,222.77 281.02,223.16 277.83,228.02 		"/>
		<polygon class="st88" points="265.86,243.34 275.37,228.85 277.04,229.23 267.53,243.73 		"/>
		<polygon class="st88" points="281.88,226.62 287.62,217.88 289.28,218.26 283.55,227.01 		"/>
		<polygon class="st88" points="267.3,248.85 271.84,241.93 273.51,242.32 268.96,249.24 		"/>
		<polygon class="st88" points="272.58,240.79 281.4,227.35 283.07,227.74 274.25,241.18 		"/>
		<polygon class="st88" points="288.39,224.4 292,218.89 293.67,219.27 290.06,224.78 		"/>
		<polygon class="st88" points="282.92,232.74 287.81,225.29 289.47,225.67 284.59,233.12 		"/>
		<polygon class="st88" points="271.68,249.87 281.96,234.19 283.63,234.58 273.35,250.25 		"/>
	</g>
	<polygon class="st87" points="127.38,257.24 125.69,211.4 207.1,212.01 211.63,257.67 	"/>
	<g>
		<polygon class="st88" points="138.6,224.7 137.44,212.18 139.44,212.24 140.59,224.76 		"/>
		<polygon class="st88" points="139.99,239.7 138.83,227.18 140.82,227.24 141.98,239.77 		"/>
		<polygon class="st88" points="141.27,253.47 140.34,243.43 142.33,243.49 143.26,253.53 		"/>
		<polygon class="st88" points="145.16,239.11 142.68,212.34 144.67,212.4 147.15,239.17 		"/>
		<polygon class="st88" points="145.85,246.56 145.38,241.54 147.37,241.6 147.84,246.62 		"/>
		<polygon class="st88" points="146.49,253.47 146.02,248.45 148.01,248.51 148.48,253.53 		"/>
		<polygon class="st88" points="148.98,224.05 147.91,212.5 149.9,212.57 150.97,224.11 		"/>
		<polygon class="st88" points="151.26,248.66 149.3,227.51 151.29,227.57 153.25,248.73 		"/>
		<polygon class="st88" points="151.74,253.79 151.47,250.93 153.46,250.99 153.73,253.85 		"/>
		<polygon class="st88" points="154.75,229.94 153.15,212.66 155.14,212.73 156.74,230 		"/>
		<polygon class="st88" points="156.97,253.95 156.22,245.81 158.2,245.87 158.96,254.02 		"/>
		<polygon class="st88" points="156.04,243.97 154.96,232.2 156.95,232.27 158.04,244.03 		"/>
		<polygon class="st88" points="158.75,216.82 158.38,212.83 160.37,212.89 160.74,216.88 		"/>
		<polygon class="st88" points="162.2,254.12 161.27,244.08 163.26,244.14 164.19,254.18 		"/>
		<polygon class="st88" points="161.05,241.65 158.92,218.6 160.91,218.66 163.04,241.71 		"/>
		<polygon class="st88" points="165.7,235.55 163.62,212.99 165.61,213.05 167.69,235.61 		"/>
		<polygon class="st88" points="167.44,254.28 165.91,237.71 167.89,237.77 169.43,254.34 		"/>
		<polygon class="st88" points="169.6,221.25 168.85,213.15 170.84,213.21 171.59,221.31 		"/>
		<polygon class="st88" points="172.67,254.44 172.21,249.42 174.2,249.48 174.66,254.5 		"/>
		<polygon class="st88" points="170.12,226.86 169.77,223.14 171.76,223.2 172.11,226.92 		"/>
		<polygon class="st88" points="171.9,246.07 170.3,228.75 172.28,228.81 173.89,246.14 		"/>
		<polygon class="st88" points="175.48,228.43 174.08,213.32 176.07,213.38 177.47,228.49 		"/>
		<polygon class="st88" points="177.91,254.6 177.28,247.86 179.27,247.92 179.9,254.66 		"/>
		<polygon class="st88" points="176.37,238.03 175.63,230.02 177.62,230.08 178.36,238.1 		"/>
		<polygon class="st88" points="177.05,245.37 176.57,240.17 178.56,240.23 179.04,245.44 		"/>
		<polygon class="st88" points="180.31,224.16 179.32,213.48 181.31,213.54 182.3,224.23 		"/>
		<polygon class="st88" points="183.14,254.77 182.94,252.55 184.93,252.61 185.13,254.83 		"/>
		<polygon class="st88" points="181.39,235.88 180.46,225.84 182.45,225.9 183.38,235.94 		"/>
		<polygon class="st88" points="182.72,250.18 181.5,237.06 183.49,237.13 184.71,250.24 		"/>
		<polygon class="st88" points="186.42,233.83 184.55,213.64 186.54,213.7 188.41,233.89 		"/>
		<polygon class="st88" points="187.27,243 186.63,236.09 188.62,236.15 189.26,243.06 		"/>
		<polygon class="st88" points="188.37,254.93 187.44,244.89 189.44,244.95 190.36,254.99 		"/>
		<polygon class="st88" points="190.35,219.96 189.79,213.8 191.77,213.86 192.35,220.02 		"/>
		<polygon class="st88" points="193.61,255.09 193.23,251.04 195.22,251.1 195.6,255.15 		"/>
		<polygon class="st88" points="191.11,228.16 190.52,221.68 192.5,221.74 193.1,228.22 		"/>
		<polygon class="st88" points="193.05,249.1 191.27,229.78 193.26,229.84 195.04,249.16 		"/>
		<polygon class="st88" points="196.1,225.62 195.02,213.97 197.01,214.03 198.09,225.69 		"/>
		<polygon class="st88" points="198.84,255.25 197.99,246.02 199.98,246.09 200.83,255.32 		"/>
		<polygon class="st88" points="197.85,244.51 196.19,226.59 198.18,226.66 199.84,244.57 		"/>
		<polygon class="st88" points="200.93,221.47 200.25,214.13 202.24,214.19 202.92,221.53 		"/>
		<polygon class="st88" points="201.96,232.58 201.04,222.65 203.03,222.72 203.95,232.65 		"/>
		<polygon class="st88" points="204.08,255.42 202.14,234.53 204.13,234.59 206.07,255.48 		"/>
	</g>
	<polygon class="st89" points="284.52,227.99 247.38,250.34 242.89,249.07 	"/>
	<path class="st0" d="M303.94,218.23l-7.6-1.96l0.8-19.19l-20.4-0.11l4.2,23.04h4.27l-1.08,0.25c0.13,0.39,0.29,0.72,0.43,0.98
		c0.07,0.13,0.14,0.25,0.21,0.37c0.51,1.66,3.13,2.25,4.9,1.96c1.79-0.29,2.95-1.15,3.87-2.32c0.21-0.2,0.46-0.47,0.69-0.82
		c0.16,0,0.33,0,0.5,0l-0.04,0.16l0.73,0.43c-0.07,2.3,0.41,4.57,1.8,5.8c0.33,0.29,0.69,0.54,1.07,0.75l4.42-7.31l-0.76-0.25h0.91
		L303.94,218.23z"/>
	<polygon class="st87" points="136.59,220.68 138.8,175.94 278.47,184.91 284.52,227.99 216.1,266.59 	"/>
	<polygon class="st92" points="215.7,180.88 138.8,175.94 136.59,220.68 215.7,266.36 	"/>
	<polygon class="st67" points="138.8,175.94 205.07,139.67 279.42,184.36 215.9,220.45 	"/>
	<g>
		<polygon class="st88" points="196.49,162.52 209.82,155.21 211.46,156.19 198.14,163.49 		"/>
		<polygon class="st88" points="180.58,171.24 193.85,163.96 195.5,164.94 182.24,172.21 		"/>
		<polygon class="st88" points="166.06,179.2 176.65,173.4 178.3,174.36 167.72,180.16 		"/>
		<polygon class="st88" points="185.73,173.34 214.14,157.79 215.78,158.76 187.38,174.31 		"/>
		<polygon class="st88" points="177.87,177.65 183.17,174.75 184.82,175.71 179.52,178.61 		"/>
		<polygon class="st88" points="170.59,181.63 175.88,178.74 177.53,179.7 172.25,182.59 		"/>
		<polygon class="st88" points="206.17,167.07 218.44,160.36 220.07,161.33 207.81,168.04 		"/>
		<polygon class="st88" points="180.17,181.29 202.51,169.07 204.15,170.04 181.82,182.24 		"/>
		<polygon class="st88" points="160.46,170.41 197.05,150.28 199.75,151.89 163.19,171.98 		"/>
		<polygon class="st88" points="174.77,184.24 177.78,182.59 179.43,183.55 176.43,185.19 		"/>
		<polygon class="st88" points="204.42,172.92 222.73,162.92 224.36,163.89 206.05,173.88 		"/>
		<polygon class="st88" points="179.11,186.74 187.68,182.06 189.32,183.02 180.76,187.69 		"/>
		<polygon class="st88" points="189.61,181.01 202.02,174.23 203.66,175.19 191.25,181.96 		"/>
		<polygon class="st88" points="222.76,167.78 227,165.47 228.62,166.44 224.39,168.75 		"/>
		<polygon class="st88" points="183.43,189.24 193.98,183.49 195.61,184.44 185.07,190.18 		"/>
		<polygon class="st88" points="196.53,182.09 220.87,168.81 222.5,169.78 198.17,183.04 		"/>
		<polygon class="st88" points="207.41,181.01 231.26,168.01 232.88,168.98 209.04,181.96 		"/>
		<polygon class="st88" points="187.74,191.72 205.14,182.24 206.77,183.2 189.37,192.67 		"/>
		<polygon class="st88" points="226.94,175.21 235.51,170.55 237.12,171.51 228.55,176.17 		"/>
		<polygon class="st88" points="192.03,194.2 197.29,191.34 198.91,192.28 193.66,195.14 		"/>
		<polygon class="st88" points="221.01,178.43 224.94,176.3 226.56,177.25 222.63,179.39 		"/>
		<polygon class="st88" points="200.8,189.43 219.02,179.52 220.63,180.47 202.42,190.38 		"/>
		<polygon class="st88" points="223.78,181.74 239.74,173.07 241.34,174.03 225.39,182.69 		"/>
		<polygon class="st88" points="196.31,196.67 203.37,192.84 204.99,193.77 197.93,197.61 		"/>
		<polygon class="st88" points="213.67,187.24 222.1,182.65 223.71,183.6 215.29,188.18 		"/>
		<polygon class="st88" points="205.97,191.42 211.43,188.45 213.05,189.4 207.59,192.36 		"/>
		<polygon class="st88" points="232.67,181.71 243.95,175.59 245.55,176.54 234.27,182.66 		"/>
		<polygon class="st88" points="200.57,199.13 202.88,197.88 204.5,198.81 202.19,200.07 		"/>
		<polygon class="st88" points="220.35,188.4 230.91,182.67 232.51,183.62 221.96,189.34 		"/>
		<polygon class="st88" points="205.37,196.53 219.1,189.07 220.71,190.02 206.98,197.47 		"/>
		<polygon class="st88" points="226.9,189.62 248.15,178.1 249.74,179.05 228.5,190.56 		"/>
		<polygon class="st88" points="217.28,194.83 224.52,190.91 226.12,191.85 218.89,195.77 		"/>
		<polygon class="st88" points="204.82,201.59 215.31,195.9 216.91,196.84 206.43,202.52 		"/>
		<polygon class="st88" points="245.85,184.11 252.34,180.6 253.93,181.55 247.44,185.05 		"/>
		<polygon class="st88" points="209.05,204.03 213.27,201.75 214.88,202.67 210.66,204.96 		"/>
		<polygon class="st88" points="237.23,188.78 244.04,185.09 245.63,186.04 238.82,189.72 		"/>
		<polygon class="st88" points="215.3,200.65 235.52,189.7 237.12,190.64 216.9,201.58 		"/>
		<polygon class="st88" points="244.25,189.72 256.51,183.09 258.09,184.03 245.84,190.66 		"/>
		<polygon class="st88" points="213.27,206.47 222.89,201.27 224.49,202.19 214.87,207.39 		"/>
		<polygon class="st88" points="224.47,200.41 243.23,190.27 244.81,191.21 226.06,201.34 		"/>
		<polygon class="st88" points="252.95,189.74 260.67,185.57 262.25,186.52 254.53,190.68 		"/>
		<polygon class="st88" points="241.3,196.03 251.7,190.41 253.28,191.35 242.88,196.97 		"/>
		<polygon class="st88" points="217.48,208.89 239.26,197.13 240.85,198.06 219.08,209.81 		"/>
	</g>
	<polygon class="st67" points="223.08,224.61 284.06,192.81 279.3,190.66 	"/>
	<polygon class="st67" points="271.69,209.56 229.37,239.82 220.77,239.74 	"/>
	<polygon class="st92" points="277.15,226.15 239.82,247.96 223.84,253.64 	"/>
	<polygon class="st92" points="254.58,231.2 278.84,215.85 271.69,222.92 	"/>
	<polygon class="st87" points="211.55,234.9 160.37,212.89 170.94,225.03 	"/>
	<polygon class="st87" points="155.33,203.8 132.98,196.42 137.82,192.73 	"/>
	<polygon class="st93" points="205.07,139.67 167.02,160.49 239.71,160.49 	"/>
</g>
<path class="st0" d="M181.62,278.07C181.62,278.07,181.62,278.07,181.62,278.07c0-0.01-0.01-0.02-0.02-0.03
	c-0.03-0.03-0.06-0.06-0.09-0.09c-0.02-0.02-0.04-0.04-0.06-0.05c-0.05-0.04-0.1-0.09-0.15-0.14c-0.04-0.04-0.09-0.08-0.14-0.12
	c-0.03-0.02-0.06-0.04-0.09-0.06c-0.05-0.04-0.11-0.08-0.17-0.12c-0.03-0.02-0.07-0.04-0.1-0.07c-0.07-0.05-0.14-0.09-0.22-0.14
	c-0.04-0.02-0.07-0.04-0.11-0.07c-0.09-0.05-0.18-0.11-0.28-0.16c-0.03-0.02-0.07-0.04-0.1-0.06c-0.14-0.08-0.29-0.15-0.45-0.23
	c0,0-0.3-0.01-0.85-0.03c-0.34-0.14-0.74-0.3-1.17-0.48c0.06,0.12,0.21,0.27,0.43,0.46c-5.29-0.16-22.33-0.69-27.77-0.91
	c2.56-0.38,4.57-2.22,11.01-2.56c6.67,0.33,13.33-0.44,15.01-0.44c-0.25-0.33-0.78-0.76-1.36-1.19c0.25,0.15,0.49,0.3,0.71,0.46
	c-0.49-0.54-1.41-1.07-2.16-1.47c-0.41-0.24-0.92-0.55-1.51-0.9c-0.02,0.09-0.01,0.2,0.03,0.34c0.02,0.05,0.05,0.11,0.07,0.17
	c-5.44-0.15-27.75-0.3-35.32-0.12c-0.05,0-0.09,0-0.14,0c-0.1,0-0.21,0.01-0.3,0.01c-0.07,0-0.13,0-0.2,0.01
	c-0.28-0.1-0.55-0.19-0.83-0.28c-0.34-0.11-0.69-0.21-1.04-0.31c-2.93-0.84-4.77,0.99-10.36,0.99c-0.2,0-0.39,0-0.58,0
	c-0.21-0.51-0.88-1.06-2.16-1.62c-0.16-0.07-0.33-0.15-0.52-0.22c-0.11-0.05-0.28-0.11-0.47-0.17c-0.33-0.11-0.66-0.19-0.99-0.26
	c-3.66-0.86-12.05-2.11-12.05-2.11l0.88,0.64l-1.51-0.1l0.35,0.19c-0.86-0.19-1.93-0.29-3.47-0.28c0.06,0.04,0.15,0.07,0.25,0.11
	l-7.86-1.24l-0.29,0.15l-0.11-0.02l0.05,0.05l0,0h0l6.89,6.91c-1.22-0.21-1.97-0.15-1.59,0.31c-0.18,0.03-0.29,0.13-0.28,0.32
	c0.05,0.79,1.93,2.08,1.93,2.08c-0.17-0.25-0.22-0.56-0.2-0.87c0.06,0.08,0.14,0.17,0.26,0.28c1.2,1.13,3.82,2.4,3.82,2.4
	c-0.31-0.22-0.65-0.5-0.98-0.81c0.13,0.07,0.27,0.14,0.4,0.21c1.63,1.2,4.4,2.37,4.4,2.37c-0.44-0.26-0.98-0.64-1.52-1.04
	c0.17,0.07,0.34,0.14,0.5,0.21c2.62,1.27,6.26,1.83,7.85,1.69c1.81-0.16,1.89-0.88,1.25-1.89l1.28,0.2l0.47,0.35l1.4,0.3
	c1.37,0.82,2.82,1.59,4.27,2.22c1.97,1.12,6.59,1.79,8.25,1.05c2.4-0.31,4.34-0.95,5.08-1.03c0.84-0.09,10.43,0.31,13.08,0.6
	c0.69,0.07,0.77-0.28,0.36-0.93c4.41-0.21,8.56-1.1,13.64-1.31c5.44,0.59,14.65-0.49,15.9-0.46
	C181.85,278.77,182.02,278.53,181.62,278.07z M113.19,269.58l-0.61-0.58l0.9,0.2C113.37,269.32,113.27,269.45,113.19,269.58z"/>
<g>
	<g>
		<path class="st94" d="M179.67,205.18c-0.13-0.23-1.65-2.72-2.55-3.41c0,0,1.69,0.33,2.68,1.58
			C180.79,204.59,179.67,205.18,179.67,205.18z"/>
		<path class="st94" d="M176.52,204.47c-0.25-0.11-3-1.2-4.15-1.23c0,0,1.58-0.72,3.14-0.31
			C177.08,203.36,176.52,204.47,176.52,204.47z"/>
		<path class="st94" d="M178.55,204.48c-0.22-0.15-2.71-1.74-3.82-1.97c0,0,1.68-0.42,3.13,0.28
			C179.31,203.48,178.55,204.48,178.55,204.48z"/>
		<polygon class="st32" points="186,222.47 173.06,216.11 172.69,215.02 189.41,210.91 189.62,211.54 		"/>
		<polygon class="st34" points="185.82,222.03 172.63,214.98 176.28,203.89 189.47,210.95 		"/>
		<polygon class="st95" points="185.82,222.03 172.63,214.98 189.47,210.95 		"/>
		<polygon class="st96" points="185.01,220.47 174.09,214.63 177.53,205.83 188.45,211.67 		"/>
		<path class="st97" d="M176.79,216.04c0,0,1.79-2.08,4.37-1.71c2.59,0.38,2.85,0,2.85,0l0.66-0.88c0,0,0.15-3,0.67-3.5l3.12,1.72
			l-3.44,8.8L176.79,216.04z"/>
		<path class="st98" d="M186.68,220.46c0,0-0.32-0.83-0.37-1.42c-0.06-0.86-0.76-1.63-0.41-1.88c0.35-0.24,0.91,1.34,1.12,1.2
			c0.2-0.15,0.57-1.39,0.92-1.39C187.86,219.55,187.45,220.26,186.68,220.46z"/>
		<polygon class="st99" points="185.61,221 186.03,219.94 187.72,219.79 187.49,221.54 		"/>
		<path class="st100" d="M182.9,225.04l2.32-4.56l3.15,0.83c0,0-2.6,8.4-3.65,8.74C183.69,230.38,182.9,225.04,182.9,225.04z"/>
		<path class="st101" d="M182.9,225.04l2.32-4.56l3.15,0.83c0,0-2.6,8.4-3.65,8.74C183.69,230.38,182.9,225.04,182.9,225.04z"/>
		<path class="st31" d="M179.32,204c0,0,1.49,2.58,1.17,4.19c-0.32,1.61-0.6,4.68-1.53,5.42c-1.73,1.56-4.67-1.66-4.67-1.66
			S172.69,200.48,179.32,204z"/>
		<g>
			<path class="st102" d="M177.26,203.34c-3.15-0.19-3.25,4.74-3.1,7.23C174.25,209.13,174.73,204.5,177.26,203.34z"/>
			<path class="st103" d="M174.2,211.04c0.05,0.56,0.09,0.91,0.09,0.91s2.85,3.11,4.59,1.72
				C176.99,213.26,174.58,211.35,174.2,211.04z"/>
		</g>
		<path class="st104" d="M170.89,272.25c0,0,2.79-3.41,4.18-3.32c1.39,0.1,0.92,1.51,0.22,1.99c-0.71,0.48-3.23,1.77-3.23,1.77
			L170.89,272.25z"/>
		<path class="st105" d="M172.06,272.68c0,0,0.56-0.29,1.22-0.64c-0.34-0.31-0.93-0.5-1.62-0.51c-0.47,0.42-0.77,0.71-0.77,0.71
			L172.06,272.68z"/>
		<path class="st104" d="M178.99,276.57c0,0,5.22-1.69,7.01-0.89c0.78,0.34,0.24,1.43-0.32,1.5c-2.72,0.35-5.95,0.15-5.95,0.15
			L178.99,276.57z"/>
		<path class="st105" d="M178.99,276.57c0,0,0.6-0.19,1.46-0.42c0.28,0.21,0.55,0.46,0.79,0.72c0.17,0.18,0.31,0.36,0.43,0.53
			c-1.14-0.01-1.94-0.06-1.94-0.06L178.99,276.57z"/>
		<path class="st106" d="M169.07,236.09c-1.06,5.16,0.73,12.75,0.86,19.89c-0.92,4.23,0.11,14.81,0.04,15.95c0,0,0.83,1.6,2.62,1.22
			c0,0,0.95-26.99,2.18-27.75c-0.32,2.86,2.62,8.25,2.86,15.99c-0.64,5.84,0.1,13.46,0.04,15.07c0.99,0.7,2.75,0.91,3.32,0.85
			c0.35-3.6,1.6-30.85,1.4-36.04C182.2,233.17,170.61,233.74,169.07,236.09z"/>
		<g>
			<path class="st107" d="M174.93,245.36c-0.11-0.1-0.23-0.18-0.35-0.24c-1.83,3.26-2.69,27.74-2.69,27.74
				c-0.4,0.08-0.75,0.07-1.05,0c0.42,0.27,1,0.46,1.74,0.29C172.58,273.15,174.62,247.52,174.93,245.36z"/>
			<path class="st107" d="M182.38,241.27c-0.07-3.33-2.01-5.19-4.37-6.07c2.03,0.97,3.61,2.78,3.68,5.78
				c0.19,5.19-1.05,32.44-1.4,36.04c-0.4,0.04-1.02,0.18-1.7,0.01c0.93,0.56,1.85,0.34,2.39,0.28
				C181.33,273.71,182.57,246.46,182.38,241.27z"/>
		</g>
		<path class="st107" d="M182.38,241.27c-0.01-0.56-0.08-1.08-0.19-1.56c-1.1-0.68-2.43-1.3-3.91-1.79
			c-3.99-1.32-7.74-1.27-9.07,0.01c-0.09,0.7-0.16,1.43-0.22,2.21c0.65,1.24,2.34,2.58,4.62,3.65l1.01-2.87l0.24,3.4
			c0.32,0.12,0.65,0.25,0.98,0.36c2.44,0.8,4.78,1.1,6.54,0.91C182.4,243.67,182.41,242.15,182.38,241.27z"/>
		<path class="st100" d="M182.32,230.13c0.16-4.68,0.2-7.21-0.15-9.58c-0.62-4.14-9.52-7.91-13.41-5.56
			c-2.68,1.62-0.1,10.82,0.05,12.44c0.09,0.96-0.75,9.46-1.2,11.51c-0.25,1.13,1.97,2.84,5.07,3.86l1-3.73l0.32,4.11
			c3.25,0.8,6.92,1.31,9.21-1.52C184.36,240.24,182.13,235.48,182.32,230.13z"/>
		<path class="st101" d="M182.32,230.13c0.16-4.68,0.2-7.21-0.15-9.58c-0.18-1.18-1.03-2.34-2.25-3.33
			c0.15,0.44,0.26,0.89,0.31,1.35c0.34,3.16,0.29,6.53,0.09,12.77c-0.14,4.6,0.72,8.86,1.03,11.82c0.68-0.34,1.31-0.82,1.86-1.5
			C184.36,240.24,182.13,235.48,182.32,230.13z"/>
		<path class="st100" d="M184.73,230.04c2.49-1.46-0.77-10.78-4.11-12.33C177.29,216.15,180.42,232.56,184.73,230.04z"/>
		<path class="st101" d="M183,220.04c1.44,3.11,2.1,7.64,1.38,10.16c0.12-0.04,0.25-0.07,0.35-0.16
			C186.9,228.24,185.22,223.38,183,220.04z"/>
		<path class="st103" d="M173.81,211.87c-0.01,0.16-0.25,2.88-0.25,2.88l3.93,1.13l0.26-3.81L173.81,211.87z"/>
		<path class="st94" d="M179.42,209.2c-0.52-4.1-3.42-5.58-5.45-5.63c-2.04-0.05-3.04,2.86-2.9,4.8c0.17,2.34,1.37,3.67,3.01,4.81
			C176.13,214.61,179.83,212.44,179.42,209.2z"/>
		<path class="st108" d="M179.81,209.9c-0.07-2.33-1.39-3.93-2.34-4.83c-0.68,1.23-1.1,2.75-1.14,4.4c-0.03,1.4,0.23,2.71,0.69,3.82
			c1.11-0.5,1.8-1.67,2.2-2.94C179.34,209.98,179.83,210.34,179.81,209.9z"/>
		<path class="st31" d="M178.93,211.68c-0.68,0.51-1.67-2.02-0.68-2.43C179.23,208.85,180.16,210.76,178.93,211.68z"/>
		<path class="st94" d="M180.18,204.13c-3.03-1.95-5.25-1.18-6.35-0.68c-2.25,1.03-2.51,2.44-2.49,3.82
			c0.01,1.38,3.99,1.05,6.45,1.05C180.05,208.32,181.55,205.01,180.18,204.13z"/>
		<path class="st108" d="M180.18,204.13c-0.17-0.11-0.34-0.21-0.51-0.3c-1.6,0.57-2.86,2.32-3.2,4.51c0.46-0.01,0.9-0.02,1.3-0.02
			C180.05,208.32,181.55,205.01,180.18,204.13z"/>
		<polygon class="st99" points="172.12,214.45 172.64,213.43 178.45,215.13 178.87,216.49 		"/>
		<path class="st101" d="M173.91,217.51c0,0-1.34,5.4-0.44,9.04c0.9,3.65,0,8.62,0,8.62s1.19-4.72,0.42-8.01
			C172.8,222.51,173.91,217.51,173.91,217.51z"/>
		<path class="st94" d="M176.81,205.57c-0.01,0.27,0.01,3.2,0.42,4.24c0,0-1.27-1.12-1.48-2.7
			C175.55,205.53,176.81,205.57,176.81,205.57z"/>
		<path class="st94" d="M176.2,207.48c0.02,0.27,0.33,3.17,0.85,4.17c0,0-1.38-0.99-1.74-2.54
			C174.94,207.57,176.2,207.48,176.2,207.48z"/>
		<path class="st94" d="M176.98,204.05c0.02,0.27,0.33,3.17,0.85,4.17c0,0-1.38-0.99-1.74-2.54
			C175.72,204.14,176.98,204.05,176.98,204.05z"/>
		<path class="st109" d="M179.63,225.14c-0.75-1.66-0.73-6.43,0.93-7.13C178.83,217.82,178.08,222.1,179.63,225.14z"/>
		<path class="st109" d="M167.85,221.37c-0.57-1.64-0.05-6.15,1.67-6.63C167.83,214.37,166.64,218.33,167.85,221.37z"/>
		<path class="st110" d="M179.32,237.49l3.04-1.68c0,0,0.26,1.44-1.17,2.2C179.64,238.82,179.32,237.49,179.32,237.49z"/>
	</g>
</g>
<g>
	<path class="st104" d="M288.55,183.36c0,0,4.12,2.92,5.46,2.69c1.34-0.23-0.39-1.64-1.11-1.98c-0.72-0.34-3.25-1.21-3.25-1.21
		L288.55,183.36z"/>
	<path class="st105" d="M289.65,182.86c0,0,0.56,0.19,1.22,0.43c-0.31,0.3-0.87,0.53-1.53,0.61c-0.48-0.32-0.8-0.54-0.8-0.54
		L289.65,182.86z"/>
	<path class="st104" d="M280.74,187.37c0,0,1.6,4.51,0.49,5.21c-0.48,0.3-1.74-0.73-1.79-1.14c-0.2-2.03,0.31-4.05,0.31-4.05
		L280.74,187.37z"/>
	<path class="st105" d="M280.74,187.37c0,0,0.18,0.52,0.38,1.23c-0.28,0.05-0.6,0.08-0.93,0.08c-0.24,0-0.46-0.01-0.67-0.04
		c0.1-0.75,0.23-1.25,0.23-1.25L280.74,187.37z"/>
	<path class="st111" d="M296.49,133.35c2.19-0.51-2.68-11.5-5.5-11.41c-4.28,0.14,1.77,10.52,3.82,11.75L296.49,133.35z"/>
	<path class="st112" d="M289.73,122.61c-0.21,2.73,4.75,8.5,7.24,10.23c-0.08,0.28-0.24,0.46-0.48,0.52l-1.46,0.94
		C293.27,133.25,288.4,124.93,289.73,122.61z"/>
	<path class="st113" d="M292.69,143.66c1.59,10.67-2.06,36.16-2.01,38.52c0,0-0.92,1.72-2.74,1.31c0,0,0.63-28.46-0.21-27.84
		c-2.09,1.55-5.94,28.17-5.95,31.89c-1.04,0.76-2.07,0.48-2.65,0.41c-0.21-3.87-0.33-33.14,0.09-38.72
		C279.74,140.54,291.21,141.14,292.69,143.66z"/>
	<path class="st114" d="M287.22,149.46c-3.12,1.45-6.24,1.85-8.08,1.19c0.02-0.57,0.05-1.05,0.08-1.42
		c0.53-8.7,11.99-8.1,13.48-5.57c0.06,0.39,0.11,0.8,0.15,1.23C291.94,146.49,289.9,148.22,287.22,149.46z"/>
	<g>
		<path class="st114" d="M288.69,156.54c0.65,1.78,0.54,23.07,0.5,26.9c-0.36,0.12-1.29,0.36-1.84-0.42c0,0,0.74-20.06,0.45-27.31
			C288.33,155.59,288.59,156.28,288.69,156.54z"/>
		<path class="st114" d="M279.21,149.24c0.46-7.61,9.3-8.1,12.49-6.42c-3.8-1.02-10.83,0.12-11.24,6.89
			c-0.41,5.42-0.31,33.27-0.11,38.34c-0.49,0.03-1.41,0.1-1.86-0.34C278.28,183.84,278.79,154.81,279.21,149.24z"/>
	</g>
	<path class="st111" d="M292.67,144.35c0.06-12.11,2.68-20.06-0.74-22.09c-4.13-2.45-12.19,1.83-13.06,6.15
		c-0.5,2.48,0.34,4.93,0.3,9.81c-0.04,5.58-0.29,10.36,0.85,10.89C283.75,150.86,292.66,146.9,292.67,144.35z"/>
	<path class="st112" d="M288.77,124.06c0.2,0.49,0.74,12.43-0.09,18.83l-0.87,1.67l-0.67-0.99c0,0,1.69-14.79,0.88-19.1
		L288.77,124.06z"/>
	<path class="st112" d="M278.87,128.41c0.41-2.04,4.56-0.33,3.2,7.6c-0.95,5.53-1.34,11.85-0.2,12.38c2.27,1.06,6.6-0.56,9.53-2.13
		c-2.6,2.17-8.52,4.2-11.38,2.86c-1.14-0.54-0.9-5.31-0.85-10.89C279.21,133.34,278.37,130.89,278.87,128.41z"/>
	<path class="st111" d="M279.09,139.6c2.09,0.74,5.03-11.55,2.38-13.27c-3.29-2.14-5.14,10.88-4.22,13.15L279.09,139.6z"/>
	<path class="st115" d="M279.79,126.55c-1.69,3-2.36,10.57-1.6,12.24l2.03,0.09c-0.37,0.56-0.76,0.84-1.13,0.72l-1.95-0.07
		C276.39,137.68,277.54,128.66,279.79,126.55z"/>
	<path class="st31" d="M296.01,129.29c0.03-0.63,0.58-0.95,1.27-0.93c0.69,0.03,1.2,0.67,1.18,1.3c-0.03,0.63-0.58,1-1.28,0.97
		C296.49,130.61,295.98,129.92,296.01,129.29z"/>
	<path class="st31" d="M297.69,127.77c0.3,0.96,0.84,4.89-0.31,6.15c-1.02,1.11-2.35,0.66-2.49-0.76c-0.12-1.14,1.7-3.69,2.11-5.33
		C297.08,127.5,297.69,127.77,297.69,127.77z"/>
	<path class="st31" d="M297.64,129.72c-0.08-0.86-0.22-1.6-0.33-1.95c0,0-0.1-0.04-0.22-0.07c0.2-0.1,0.59,0.07,0.59,0.07
		c0.11,0.35,0.25,1.09,0.33,1.95H297.64z"/>
	<path class="st102" d="M284.4,123.75l-0.03-5.24l3.56,1.03l1.06,4.24C288.98,123.78,287.55,125.23,284.4,123.75z"/>
	<polygon class="st116" points="288.31,124.49 287.59,124.06 287.08,123.83 286.28,124.61 	"/>
	<polygon class="st116" points="288.5,124.3 288.75,123.61 288.86,123.05 289.48,123.78 	"/>
	<polygon class="st117" points="287.08,123.83 286.42,125.23 283.69,123.27 284.4,122.24 	"/>
	<path class="st118" d="M288.77,124.06c0.21,0.48,1.09,12.3,0.43,18.64l-0.83,1.66l-0.7-0.98c0,0,1.28-14.64,0.35-18.9
		L288.77,124.06z"/>
	<polygon class="st118" points="288.18,125.15 287.65,124.02 288.94,123.51 288.84,124.89 	"/>
	<path class="st119" d="M283.54,124.99c-0.74,0.01-1.6-0.11-2.25-0.24c0.57-0.62,2.23-1.66,2.65-1.84l0.45-0.65l-0.02-3.07
		c1.49,0.09,2.81,0.46,3.72,1.01l0.39,1.56c0.31-0.04,0.61-0.06,0.9-0.06c0.03,0.12,0.06,0.25,0.04,0.38
		c-0.07,0.58-0.82,1.3-1.99,1.91c-0.11-0.04-0.21-0.08-0.35-0.14c-0.11,0.22-0.23,0.52-0.36,0.74
		C285.89,124.97,284.56,124.97,283.54,124.99z"/>
	<path class="st120" d="M285.78,134.66c-0.46-0.46-0.35-1.13-0.25-1.22c0.1-0.09,0.56,0.22,1.02,0.68c0.46,0.46,0.74,0.91,0.64,0.99
		C287.08,135.2,286.24,135.12,285.78,134.66z"/>
	<path class="st31" d="M287.88,133.2c-1.27,2.17-6.83,8.15-8.66,7.88c-1.82-0.27-2.32-1.29-2.02-1.87c1.12-2.13,7.59-3.8,10.24-6.39
		C287.64,132.63,287.88,133.2,287.88,133.2z"/>
	<polygon class="st118" points="287.97,123.99 287.08,123.84 286.99,124.07 287.96,124.4 	"/>
	<path class="st118" d="M288.67,123.64c0,0,0.2-0.62,0.19-0.59c-0.02,0.03,0.29,0.35,0.29,0.35l-0.24,0.37L288.67,123.64z"/>
	<g>
		<path class="st121" d="M289.98,119.73c0.92-5.04-4.29-6.9-1.55-8.11c0,0,5.66,0,1.9,8.07
			C289.99,119.76,290.58,120.36,289.98,119.73z"/>
		<path class="st31" d="M283.81,118.76c-0.28-2.97,0.27-5.57,1.9-6.64c1.63-1.06,5.29-0.43,5.77,3.6c0.1,0.81,0.16,1.3,0.04,2.08
			c-0.03,0.2-0.53,0.65-0.63,0.88c-0.12,0.27,0.2,0.85,0.16,1.02c-0.62,2.17-1.71,3.39-2.83,3.68c-0.87,0.23-2.91-1.49-2.98-2.19
			C284.93,117.62,283.91,119.82,283.81,118.76z"/>
		<path class="st121" d="M286.05,119.94c-1.01-5.14,4.17-5.97-2.21-7.87c0,0-3.1,2.15,0.58,8.48
			C284.73,119.94,285.2,119.64,286.05,119.94z"/>
		<path class="st94" d="M287.03,115.29c1.32,0.88,5.2,0.11,4.47-1.48c-0.74-1.59-1.73-2.66-4.16-2.81c-2.81-0.18-4.74,1.55-4.3,3.22
			C283.49,115.88,285.27,114.12,287.03,115.29z"/>
		<path class="st31" d="M285.58,119.04c-0.11,0.62,0.44,0.96-0.21,1.26c-0.75,0.35-1.67-1.24-0.86-1.83
			C285.13,118.02,285.67,118.5,285.58,119.04z"/>
		<path class="st94" d="M288,115.58c0,0-0.61-1-2.02-2.24c-1.42-1.24-2.47-1.11-2.47-1.11s2.1,3.42,1.66,4.67
			C285.18,116.9,285.58,115.08,288,115.58z"/>
	</g>
	<path class="st111" d="M287.13,135.13c-0.54-0.19-1.41-0.9-1.65-1.61c0,0-8.86,4.71-8.45,5.97c0.41,1.25,1.16,2.29,2.86,1.71
		C281.58,140.61,287.13,135.13,287.13,135.13z"/>
	<path class="st115" d="M277.99,138.17c0.06,0.82,0.53,1.62,1.7,1.37c1.29-0.27,5.37-3,7.44-4.42c0,0,0.01,0,0.01,0
		c0,0-5.55,5.48-7.25,6.06c-1.7,0.58-2.46-0.46-2.86-1.71C276.93,139.19,277.23,138.29,277.99,138.17z"/>
	<path class="st112" d="M298.47,129.62c-0.55,1.39-2.25,1.34-2.33-0.81c0,0-2.23,4.38-1.26,5.37c0.65,0.66,1.72,1.04,2.71-0.07
		C298.59,132.99,298.47,129.62,298.47,129.62z"/>
	<path class="st111" d="M297.47,131.4c0.33-0.09,0.64-0.33,0.8-0.7c0,0,0.25,2.61-0.68,3.48c-0.38,0.36-0.76,0.51-1.13,0.54
		C297.05,134.11,297.34,132.75,297.47,131.4z"/>
	<path class="st31" d="M287.15,132.88c-0.16,0.07,0.15-1.17,0.8-1.68c0.43-0.34,0.86-0.55,0.92-0.33c0.08,0.28-0.25,0.13-0.61,0.68
		C287.89,132.1,289.09,132.08,287.15,132.88z"/>
	<polygon class="st32" points="289.64,127.67 298.97,122.67 299.26,122.89 287.84,134.42 287.47,134.25 	"/>
	<path class="st31" d="M297.6,127.3c0.09-0.33,0.28-0.57,0.44-0.54c0.15,0.03,0.2,0.33,0.11,0.66c-0.09,0.33-0.28,0.57-0.43,0.54
		C297.56,127.92,297.51,127.63,297.6,127.3z"/>
	<polygon class="st33" points="289.97,127.87 299.3,122.87 297.14,129.44 287.8,134.44 	"/>
	<polygon class="st34" points="289.97,127.87 299.3,122.87 287.8,134.44 	"/>
	<path class="st33" d="M290.15,131.47c-0.01,0.25-0.07,0.52-0.19,0.8l-2,2.02c-0.04,0.01-0.08,0.03-0.12,0.04l1.25-3.81
		C289.73,130.44,290.17,130.79,290.15,131.47z"/>
	<path class="st31" d="M287.32,133.98c0.63-0.86,1.3-0.89,1.3-0.89l-0.26-1.29c0,0-0.88-0.16-1.6,1.61L287.32,133.98z"/>
	<polygon class="st122" points="287.25,149.65 289.06,148.92 289.1,149.71 287.29,150.44 	"/>
	<path class="st31" d="M289.72,131.45c-0.11-0.17-0.76,0.3-1.03,0.27c-0.27-0.03-1.09-0.09-1.09-0.09c-0.22,0.22-0.4,0.65-0.53,1.22
		c0,0,1.39-0.67,1.64-0.68C288.97,132.14,289.94,131.8,289.72,131.45z"/>
	<path class="st31" d="M289.23,132.17c-0.08-0.13-0.43-0.01-0.63-0.03c-0.2-0.02-0.57,0.06-0.57,0.06l-0.05,0.33
		c0,0,0.47,0.11,0.66,0.1C288.83,132.62,289.39,132.43,289.23,132.17z"/>
	<path class="st31" d="M289.05,132.62c-0.08-0.13-0.35-0.01-0.55-0.03c-0.2-0.02-0.57,0.06-0.57,0.06l-0.05,0.33
		c0,0,0.47,0.11,0.66,0.1C288.72,133.06,289.21,132.88,289.05,132.62z"/>
	<path class="st31" d="M298.03,126.93c-0.2-0.16-1.14,0.1-1.08,0.31c0.06,0.2,0.94,0,1.07-0.06L298.03,126.93z"/>
	<path class="st31" d="M297.94,127.21c-0.12-0.14-0.61,0.26-0.55,0.45c0.05,0.2,0.5-0.12,0.57-0.2L297.94,127.21z"/>
	<path class="st31" d="M297.94,127.53c-0.11-0.12-0.54,0.23-0.49,0.41c0.05,0.18,0.45-0.11,0.51-0.18L297.94,127.53z"/>
	<path class="st115" d="M284.77,134.98c0-0.18,0.14-0.32,0.31-0.32c0.16,0,0.3,0.15,0.29,0.32c0,0.18-0.14,0.33-0.31,0.33
		C284.9,135.31,284.77,135.16,284.77,134.98z"/>
	<polygon class="st115" points="285.21,136.58 284.14,135.01 284.83,136.81 	"/>
	<polygon class="st115" points="286.13,131.27 283.63,131.98 283.76,133.64 286.14,132.69 	"/>
	<polygon class="st123" points="286.2,130.86 283.7,131.85 283.83,133.5 286.23,132.5 	"/>
</g>
<g>
	<polygon class="st124" points="195.72,189.63 214.37,200.4 214.37,215.77 195.72,205.01 	"/>
	<polygon class="st124" points="193.67,210.6 200.35,204.26 200.64,199.43 	"/>
</g>
</svg>
