<?xml version="1.0" encoding="utf-8"?>
<!-- Generator: Adobe Illustrator 23.1.0, SVG Export Plug-In . SVG Version: 6.00 Build 0)  -->
<svg version="1.1" id="Layer_1" xmlns="http://www.w3.org/2000/svg" xmlns:xlink="http://www.w3.org/1999/xlink" x="0px" y="0px"
	 viewBox="0 0 520.7 76" style="enable-background:new 0 0 520.7 76;" xml:space="preserve">
<style type="text/css">
	.st0{fill:#FFFFFF;}
</style>
<path class="st0" d="M0,69.2l5.9-7.1c3.8,3,8,4.6,12.5,4.6c2.9,0,4.4-1,4.4-2.6V64c0-1.6-1.3-2.5-6.5-3.7
	C8.1,58.4,1.8,56.1,1.8,48.2v-0.1c0-7.2,5.7-12.3,14.9-12.3c6.5,0,11.7,1.8,15.8,5.1l-5.3,7.5c-3.5-2.5-7.4-3.8-10.8-3.8
	c-2.6,0-3.9,1.1-3.9,2.5v0.1c0,1.8,1.3,2.5,6.6,3.7c8.9,1.9,14.3,4.8,14.3,12V63c0,7.9-6.2,12.5-15.6,12.5
	C11.2,75.6,4.7,73.4,0,69.2z"/>
<path class="st0" d="M54.7,34.6h-16V21.7h46.7v12.9h-16v40.3H54.7V34.6z"/>
<path class="st0" d="M95.2,10.5H147v15.2h-34.1v9.8h30.9v14.1h-30.9v10.2h34.6v15.2H95.2V10.5z"/>
<path class="st0" d="M160.2,0h32.1c18.9,0,31.1,9.7,31.1,26.3v0.2c0,17.6-13.6,27-32.2,27H181v21.4h-20.8L160.2,0L160.2,0z
	 M190.8,37.3c7.4,0,11.9-3.8,11.9-9.7v-0.2c0-6.4-4.5-9.8-12-9.8H181v19.8C181,37.3,190.8,37.3,190.8,37.3z"/>
<path class="st0" d="M265.9,32.5H301v17.9h-35.1V32.5z"/>
<g>
	<path class="st0" d="M339.2,66.6l14.9-11.3c3.7-2.9,5.1-4.8,5.1-7.1c0-2.5-1.8-4-4.4-4c-2.7,0-4.8,1.5-7.9,5.1l-7.4-6.2
		c4.3-5.5,8.4-8.5,16.2-8.5c8.7,0,14.6,5.2,14.6,12.6v0.1c0,6.3-3.3,9.6-9.2,13.9l-6.8,4.8h16.4v9h-31.4V66.6z"/>
	<path class="st0" d="M375.7,49.3v-0.1c0-14.6,9.3-26.8,24-26.8c14.7,0,23.8,12.1,23.8,26.7v0.1c0,14.6-9.2,26.8-24,26.8
		C384.8,76,375.7,63.9,375.7,49.3z M409.1,49.3v-0.1c0-8.2-3.9-14.2-9.6-14.2s-9.4,5.7-9.4,14v0.1c0,8.3,3.8,14.2,9.6,14.2
		S409.1,57.5,409.1,49.3z"/>
	<path class="st0" d="M429.5,61.7l23.8-18.1c5.9-4.6,8.2-7.6,8.2-11.4c0-4-2.8-6.4-7.1-6.4s-7.6,2.4-12.6,8.2l-11.9-9.9
		c6.8-8.8,13.5-13.6,25.9-13.6c13.9,0,23.4,8.3,23.4,20.2v0.2c0,10.2-5.3,15.4-14.7,22.2l-10.9,7.6h26.2v14.3h-50.3V61.7z"/>
	<path class="st0" d="M500.4,19.2l-12.5,2.9L484,6.2L505.7,0h15v74.9h-20.3V19.2z"/>
</g>
</svg>
